<?xml version="1.0" encoding="UTF-8"?>
<svg width="30px" height="30px" viewBox="0 0 30 30" version="1.1" xmlns="http://www.w3.org/2000/svg" xmlns:xlink="http://www.w3.org/1999/xlink">
    <title>Shape 3</title>
    <g id="Menu" stroke="none" stroke-width="1" fill="none" fill-rule="evenodd">
        <g id="menu----expanded" transform="translate(-979.000000, -616.000000)" fill="#000000">
            <g id="Group" transform="translate(924.000000, 430.000000)">
                <g id="Social" transform="translate(0.000000, 186.000000)">
                    <path d="M70,11.428125 C68.0274824,11.4288646 66.4289714,13.0283749 66.4294643,15.0008925 C66.4299574,16.9734102 68.0292678,18.5721212 70.0017855,18.5718747 C71.9743033,18.5716283 73.5732143,16.9725177 73.5732143,15 C73.5717363,13.0273975 71.9726029,11.4288635 70,11.428125 L70,11.428125 Z M78.3511161,8.68258929 C77.9835613,7.75111533 77.2462061,7.01376011 76.3147321,6.64620536 C74.9084821,6.09107143 71.5602679,6.215625 70,6.215625 C68.4397321,6.215625 65.0948661,6.08638393 63.6845982,6.64620536 C62.7531243,7.01376011 62.015769,7.75111533 61.6482143,8.68258929 C61.09375,10.0888393 61.2176339,13.4404018 61.2176339,14.9993304 C61.2176339,16.5582589 61.09375,19.9058036 61.6508929,21.3167411 C62.0184476,22.248215 62.7558028,22.9855702 63.6872768,23.353125 C65.0935268,23.9082589 68.4417411,23.7837054 70.0026786,23.7837054 C71.5636161,23.7837054 74.9071429,23.9129464 76.3174107,23.353125 C77.2488847,22.9855702 77.9862399,22.248215 78.3537946,21.3167411 C78.9129464,19.9104911 78.784375,16.5589286 78.784375,15 C78.784375,13.4410714 78.9129464,10.0941964 78.3537946,8.68325893 L78.3511161,8.68258929 Z M70,20.4910755 C66.967365,20.4910755 64.5089286,18.032635 64.5089286,15 C64.5089286,11.967365 66.967365,9.50892857 70,9.50892857 C73.032635,9.50892857 75.4910755,11.967365 75.4910755,15 C75.4928514,16.4568676 74.914901,17.8545775 73.8847393,18.8847393 C72.8545775,19.914901 71.4568676,20.4928514 70,20.4910755 L70,20.4910755 Z M75.7174107,10.5602679 C75.198952,10.5605387 74.7313935,10.2484352 74.5328003,9.7695196 C74.334207,9.29060397 74.4436982,8.73921369 74.810208,8.37251221 C75.1767179,8.00581074 75.7280509,7.89603145 76.2070703,8.0943744 C76.6860896,8.29271736 76.9984487,8.76011269 76.9984487,9.27857143 C76.9998618,9.61859928 76.8658295,9.94519867 76.6259574,10.1862016 C76.3860854,10.4272044 76.0601201,10.5627714 75.7200893,10.5629464 L75.7174107,10.5602679 Z M81.7857143,0 L58.2142857,0 C56.4390847,0 55,1.43908473 55,3.21428571 L55,26.7857143 C55,28.5609153 56.4390847,30 58.2142857,30 L81.7857143,30 C83.5609153,30 85,28.5609153 85,26.7857143 L85,3.21428571 C85,1.43908473 83.5609153,0 81.7857143,0 L81.7857143,0 Z M80.6392857,19.4196429 C80.5529018,21.1359375 80.1611607,22.6566964 78.9082589,23.90625 C77.6553571,25.1558036 76.1359375,25.5555804 74.4216518,25.6372768 C72.653125,25.7370536 67.3508929,25.7370536 65.5823661,25.6372768 C63.8660714,25.5508929 62.3506696,25.1584821 61.0957589,23.90625 C59.8408482,22.6540179 59.4464286,21.1325893 59.3647321,19.4196429 C59.2649554,17.6504464 59.2649554,12.3475446 59.3647321,10.5803571 C59.4511161,8.8640625 59.8381696,7.34330357 61.0957589,6.09375 C62.3533482,4.84419643 63.8727679,4.44910714 65.5823661,4.36741071 C67.3508929,4.26763393 72.653125,4.26763393 74.4216518,4.36741071 C76.1379464,4.45379464 77.6580357,4.84620536 78.9082589,6.0984375 C80.1584821,7.35066964 80.5575893,8.87209821 80.6392857,10.5883929 C80.7390625,12.3508929 80.7390625,17.6491071 80.6392857,19.4196429 Z" id="Shape"></path>
                </g>
            </g>
        </g>
    </g>
</svg>