<?xml version="1.0" encoding="UTF-8"?>
<svg width="30px" height="30px" viewBox="0 0 30 30" version="1.1" xmlns="http://www.w3.org/2000/svg" xmlns:xlink="http://www.w3.org/1999/xlink">
    <title>Shape</title>
    <g id="Menu" stroke="none" stroke-width="1" fill="none" fill-rule="evenodd">
        <g id="menu----expanded" transform="translate(-1034.000000, -616.000000)" fill="#000000">
            <g id="Group" transform="translate(924.000000, 430.000000)">
                <g id="Social" transform="translate(0.000000, 186.000000)">
                    <path d="M122.508929,11.390625 L128.883929,15.0133929 L122.508929,18.6361607 L122.508929,11.390625 Z M140,3.21428571 L140,26.7857143 C140,28.5602679 138.560268,30 136.785714,30 L113.214286,30 C111.439732,30 110,28.5602679 110,26.7857143 L110,3.21428571 C110,1.43973214 111.439732,0 113.214286,0 L136.785714,0 C138.560268,0 140,1.43973214 140,3.21428571 Z M137.1875,15.0200893 C137.1875,15.0200893 137.1875,11.0290179 136.678571,9.11383929 C136.397321,8.05580357 135.573661,7.22544643 134.522321,6.94419643 C132.627232,6.42857143 125,6.42857143 125,6.42857143 C125,6.42857143 117.372768,6.42857143 115.477679,6.94419643 C114.426339,7.22544643 113.602679,8.05580357 113.321429,9.11383929 C112.8125,11.0223214 112.8125,15.0200893 112.8125,15.0200893 C112.8125,15.0200893 112.8125,19.0111607 113.321429,20.9263393 C113.602679,21.984375 114.426339,22.78125 115.477679,23.0625 C117.372768,23.5714286 125,23.5714286 125,23.5714286 C125,23.5714286 132.627232,23.5714286 134.522321,23.0558036 C135.573661,22.7745536 136.397321,21.9776786 136.678571,20.9196429 C137.1875,19.0111607 137.1875,15.0200893 137.1875,15.0200893 L137.1875,15.0200893 Z" id="Shape"></path>
                </g>
            </g>
        </g>
    </g>
</svg>