<svg xmlns="http://www.w3.org/2000/svg" xmlns:xlink="http://www.w3.org/1999/xlink" width="893" height="72" viewBox="0 0 893 72">
    <defs>
        <path id="prefix__a" d="M0.164 0L121.523 0 121.523 71.237 0.164 71.237z"/>
    </defs>
    <g fill="none" fill-rule="evenodd">
        <mask id="prefix__b" fill="#fff">
            <use xlink:href="#prefix__a"/>
        </mask>
        <path fill="#00274C" d="M119.639 71.237L120.667 71.237 120.667 0 119.639 0z" mask="url(#prefix__b)"/>
        <path fill="#FFCB05" d="M49.816 58.808L29.408 30.929 29.408 51.208 37.515 51.208 37.515 71.237 0 71.237 0 51.208 7.6 51.208 7.6 20.021 0 20.021 0 0 29.474 0 49.816 28.082 70.147 0 99.609 0 99.609 20.021 92.007 20.021 92.007 51.208 99.609 51.208 99.609 71.237 62.094 71.237 62.094 51.208 70.199 51.208 70.199 30.929z" mask="url(#prefix__b)"/>
        <path fill="#00274C" d="M421.978 71.215v-.803c1.028-.074 1.82-.148 1.82-.984 0-.298-.096-.622-.184-.899l-.45-1.532h-5.308l-.471 1.297c-.107.32-.192.622-.192.943 0 1.068 1.134 1.134 2.044 1.175v.803h-6.21v-.803c1.584-.074 2.1-.383 2.678-1.967l4.078-11.188-.236-.376c1.746-.567 2.24-.836 2.988-1.381.298 1.017.342 1.157.674 2.225l3.34 10.248c.6 1.82.878 2.27 2.473 2.44v.802h-7.044zm-1.36-12.097l-2.217 6.254h4.336l-2.118-6.254zm-52.512 8.76c-.666 1.079-2.272 3.746-6.435 3.746-4.539 0-7.485-3.341-7.485-7.751 0-4.081 2.497-8.093 7.58-8.093 2.69 0 4.112 1.123 4.989 1.808l1.02-.931.084 4.571-.663.129c-.268-.88-.655-1.584-1.628-2.645-.471-.493-1.584-1.488-3.16-1.488-2.73 0-4.87 2.225-4.87 6.145 0 3.308 1.768 6.424 5.246 6.424 2.644 0 3.64-1.466 4.42-2.601l.902.685zm2.535 3.337v-.803c1.713-.148 1.735-.512 1.735-1.967.022-.538.022-1.072.022-1.607v-6.317c0-.984 0-1.97-.063-2.442-.088-.899-.515-1.017-1.683-1.135v-.803h6.457v.803c-1.263.13-1.734.173-1.885 1.009-.107.48-.118 1.595-.118 2.505v2.075c1.296.076 2.206.107 3.47.107 1.274 0 2.291-.03 3.576-.107v-2.524c-.021-2.752-.043-2.87-2.099-3.065v-.803h6.542v.803c-1.757.214-1.757.236-1.757 3.106v6.37c0 .588.022 2.496.096 2.945.096.792.557.94 1.661 1.047v.814h-6.542v-.814c1.521-.17 1.927-.213 2.056-1.252.043-.439.043-1.006.043-2.097V64.29c-1.2-.033-2.195-.096-3.436-.096-1.308 0-2.314.033-3.621.096v2.773c.022 3.136.066 3.136 2.014 3.35v.813h-6.468v-.01zm18.618 0v-.803c1.477-.202 1.779-.361 1.8-1.948v-8.039c-.021-3.127-.021-3.223-1.8-3.48v-.804h6.274v.803c-1.765.173-1.765.258-1.765 3.481v6.101c0 .526.022 2.217.052 2.667.107.92.537 1.134 1.713 1.22v.802h-6.274zm-42.972 0v-.803c1.477-.202 1.776-.361 1.798-1.948v-8.039c-.022-3.127-.022-3.223-1.798-3.48v-.804h6.263v.803c-1.779.173-1.779.258-1.779 3.481v6.101c0 .526.033 2.217.077 2.667.096.92.523 1.134 1.702 1.22v.802h-6.263zm-9.497 0v-.803c1.894-.126 1.894-.213 1.916-3.006v-7.592l-5.278 11.596H332.1l-4.84-11.744-.118 8.863c0 1.478.173 1.757 1.779 1.883v.803h-5.235v-.803c1.22-.074 1.691-.235 1.765-1.252.044-.406.118-1.68.129-2.516l.214-6.315c.022-.493.022-1.222.022-1.757 0-1.499-.3-1.606-1.64-1.628v-.803h4.745l4.7 11.446 5.17-11.446h4.593v.891c-1.798.107-1.82.299-1.798 2.653v6.21c0 1.04.022 2.314.085 3.084.085 1.113.515 1.316 1.713 1.433v.803h-6.595zm93.219 0v-.803c1.241-.074 1.712-.085 1.882-.94.214-1.008.28-9.957.3-11.519-.834-.773-1.177-.92-2.182-1.009v-.803h4.527c1.264 1.801 1.54 2.196 3.769 4.947l4.207 5.213v-6.753c-.022-2.39-.085-2.516-2.483-2.604v-.803h5.953v.803c-1.661.022-1.801.365-1.82 2.829l-.217 11.637h-.899l-1.348-1.683c-.674-.855-1.37-1.713-2.045-2.546l-5.964-7.345v7.816c0 2.44.162 2.525 2.475 2.76v.803h-6.155zm-125.86-7.556c0 5.213-3.545 7.954-7.549 7.954-4.39 0-7.816-3.168-7.816-7.976 0-4.122 2.762-7.85 7.602-7.816 4.58.01 7.762 3.267 7.762 7.838zm-7.538 6.562c.855-.033 2.067-.45 2.996-1.864 1.06-1.636 1.285-3.147 1.222-5.106-.066-1.938-.6-3.618-1.713-4.796-.482-.524-1.436-1.286-2.7-1.242-1.263 0-2.192.792-2.663 1.316-1.072 1.222-1.554 2.913-1.554 4.85 0 1.971.257 3.47 1.37 5.066.976 1.39 2.184 1.776 3.042 1.776zm9.056.172v.822h6.254v-.822c-1.565-.15-1.757-.301-1.812-1.948l.022-4.306h1.672c1.68 0 2.58.162 2.675 1.853h.74v-4.978h-.74c-.074 1.617-.523 1.787-2.365 1.787h-1.982v-5.234c.537-.066.836-.074 1.79-.074 2.954 0 3.895-.011 4.303 2.343h.748l-.247-3.695h-11.058v.803c1.082.118 1.565.184 1.713.88.106.472.128 2.14.128 2.74v5.288c0 .42-.03 2.239-.052 2.593-.044 1.647-.224 1.797-1.79 1.948zm-129.67.726v-.814c1.477-.191 1.765-.361 1.787-1.948v-8.028c-.022-3.149-.022-3.234-1.787-3.48v-.815h6.262v.814c-1.768.173-1.768.247-1.768 3.481v6.09c0 .526.011 2.228.066 2.667.096.92.524 1.135 1.702 1.22v.813h-6.262zm66.463 0v-.814c1.466-.191 1.765-.361 1.787-1.948v-8.028c-.022-3.149-.022-3.234-1.787-3.48v-.815h6.251v.814c-1.776.173-1.776.247-1.776 3.481v6.09c0 .526.02 2.228.063 2.667.107.92.535 1.135 1.713 1.22v.813h-6.251zm-84.835 0v-.814c1.242-.063 1.702-.084 1.883-.94.214-1.008.28-9.957.29-11.522-.824-.759-1.167-.918-2.173-.995v-.814h4.528c1.264 1.79 1.543 2.196 3.758 4.958l4.207 5.213V59.45c-.011-2.387-.074-2.524-2.472-2.6v-.815h5.93v.814c-1.638.011-1.786.365-1.808 2.818l-.214 11.648h-.888l-1.351-1.694c-.685-.855-1.37-1.702-2.056-2.535l-5.953-7.356v7.825c0 2.43.162 2.516 2.475 2.751v.814h-6.156zm72.362-4.7l.77-.085c.825 2.453 2.217 3.78 4.486 3.78 1.595 0 3.01-.686 3.01-2.314 0-1.713-1.64-2.387-2.368-2.685-.598-.236-1.242-.428-1.84-.664-1.244-.45-3.565-1.414-3.565-4.336 0-2.817 2.214-4.412 4.807-4.412 1.006 0 2.174.225 3.456 1.039l.921-.664.493 4.487-.748.148c-.257-.984-.45-1.444-1.05-2.237-.729-.942-1.745-1.38-2.943-1.38-1.606 0-2.549.77-2.549 1.97 0 1.787 1.776 2.398 3.467 2.943.858.288 1.554.524 2.173.877 1.2.707 2.185 2.037 2.185 3.846 0 2.611-2.14 4.774-5.32 4.774-2.045 0-3.319-.814-3.908-1.2l-1.253-.91-.224-2.977zm24.795 4.7v-.64c1.392-.023 1.776-.535 1.776-1.725V57.63h-1.872c-1.713 0-2.837-.063-2.976 2.622h-.781l.128-4.218h13.704l.126 4.218h-.803c-.126-2.685-1.252-2.622-2.954-2.622h-1.883v11.124c0 1.19.383 1.702 1.765 1.724v.641h-6.23zM146.084 56.034v.814c-2.014.14-2.014.214-2.033 3.415v3.544c0 1.842.04 3.426 1.005 4.84.77 1.113 2.089 1.264 2.752 1.264 2.152 0 3.338-1.124 3.865-2.903.416-1.4.438-4.056.438-5.802 0-.556 0-2.354-.022-2.847-.085-1.37-.792-1.415-2.14-1.51v-.815h5.75v.814c-1.404-.032-1.713.291-1.79 1.79-.022.362-.192 4.55-.214 5.191-.044 1.146-.118 2.291-.364 3.382-1.028 4.06-4.977 4.273-6.027 4.273-.836 0-2.549-.129-3.95-1.072-2.25-1.518-2.269-3.78-2.269-6.218v-3.415c-.022-1.628-.022-2.357-.066-2.741-.128-.943-.6-1.124-1.735-1.19v-.814h6.8zm53.475 0v.814c-1.445.214-1.647.612-2.878 3.61l-4.604 10.952h-.814l-4.122-11.125c-1.017-2.87-1.157-3.212-2.664-3.437v-.814h7.15v.814c-1.209.033-2 .077-2 .954 0 .428.106.792.512 2.056l2.623 7.677 3.072-7.946c.192-.523.45-1.208.45-1.595 0-1.08-1.061-1.135-2.012-1.146v-.814h5.287zm71.517 15.085v-.814c1.19-.128 1.639-.17 1.926-.47.354-.344.354-.727.365-2.366v-2.656l-4.004-6.208c-1.091-1.628-1.113-1.672-2.557-1.757v-.833h7.846v.833c-1.584.044-2.29.077-2.29.803 0 .409.279.878.662 1.522l2.314 3.78 2.13-3.758c.386-.751.6-1.19.6-1.544 0-.726-.623-.737-1.67-.803v-.833h5.887v.833c-1.52.044-1.96.494-3.683 3.309l-2.355 3.93v3.146c0 2.73.022 2.944 2.259 3.062v.824h-7.43zm-58.584 0c0-1.09.184-2.88.313-3.908h-.73c-.514 2.689-2.022 2.56-4.206 2.56-2.015 0-2.41-.534-2.41-1.521v-4.218h1.618c1.86 0 2.398.162 2.398 1.853h.715v-4.978h-.715c-.15 1.338-.43 1.776-2.38 1.776h-1.635v-5.308h1.852c2.568 0 3.478.192 3.832 2.236h.674l-.085-3.577h-10.749v.803c1.09.107 1.562.173 1.713.888.107.46.118 2.122.118 2.722v5.309c0 .408-.011 2.217-.033 2.582-.041 1.647-.236 1.798-1.798 1.948v.833h11.508zm199.787-6.56v.813c-1.37.074-1.37.469-1.415 3.327v1.135c-1.167.73-2.847 1.779-5.802 1.779-5.193 0-7.677-3.941-7.677-7.89 0-4.83 3.267-7.976 7.368-7.976 2.579 0 4.067.962 5.286 1.713l.793-.9.117 4.72-.608.107c-.32-.888-.781-1.927-1.916-3.061-.504-.49-1.458-1.124-2.987-1.124-2.623 0-4.818 2.217-4.818 6.564 0 3.467 1.713 6.433 4.645 6.433 1.68 0 2.538-1.176 2.623-1.264.269-.406.332-.77.312-1.433-.076-1.927-.334-1.96-2.003-2.13v-.814h6.082zm-192.784-1.533c.406.085.984.15 1.414.15 1.713.012 3.007-1.34 3.073-2.548.095-1.746-.793-3.264-3.566-3.264-.387 0-.622.022-.921.085v5.577zm0 3.286c.022 3.459.022 3.93 1.842 3.974v.833h-6.307v-.833c1.628-.129 1.798-.386 1.82-2.014.022-.62.022-1.327.022-1.938v-5.46c0-1.808-.022-2.452-.085-2.943-.107-.836-.515-.987-1.757-1.094v-.803l6.841.011c3.717 0 4.892 1.78 4.892 3.876 0 1.458-.899 3.34-2.976 3.982l2.678 4.648c.962 1.776 1.477 2.185 2.697 2.355v.504c-.332.03-.653.041-.995.041-2.837 0-4.016-.973-5.213-3.522l-.825-1.765c-.9-1.907-1.2-1.79-2.623-1.811v1.96h-.011zM170.633 30.77c0 2.3-.225 4.4-.674 6.293-.46 1.886-1.223 3.555-2.291 4.99-1.061 1.445-2.484 2.528-4.251 3.276-1.768.74-3.972 1.124-6.595 1.168-4.604 0-8.04-1.275-10.3-3.824-2.258-2.546-3.414-6.06-3.458-10.543V1.113h5.676V32c0 3.168.674 5.555 2.034 7.161 1.359 1.596 3.393 2.42 6.1 2.464 1.65 0 3.01-.268 4.081-.803 1.058-.537 1.905-1.252 2.525-2.154.61-.91 1.027-2.023 1.233-3.338.203-1.307.332-2.689.373-4.122V1.113h5.547V30.77zM201.039 45.628L183.331 7.033 183.331 45.628 178.211 45.628 178.211 1.113 186.168 1.113 203.681 39.217 203.681 1.113 208.746 1.113 208.746 45.628zM244.01 24.357c0 3.5-.18 6.561-.555 9.184-.365 2.634-1.168 4.862-2.399 6.671-1.23 1.798-3.017 3.157-5.363 4.067-2.344.9-5.47 1.349-9.38 1.349h-9.923V1.113h12.944c3.33 0 5.964.515 7.902 1.543 1.927 1.028 3.404 2.546 4.432 4.56 1.027 2.012 1.669 4.465 1.915 7.335.247 2.877.387 6.144.428 9.806zm-5.672-1.66c0-3.213-.118-5.877-.365-8.02-.247-2.14-.718-3.843-1.422-5.117-.697-1.275-1.702-2.185-3.02-2.72-1.316-.534-3.04-.802-5.183-.802h-6.22v34.667h4.37c2.633 0 4.73-.246 6.295-.75 1.562-.494 2.749-1.434 3.574-2.826.825-1.403 1.36-3.234 1.606-5.493.247-2.258.365-5.245.365-8.94zM251.164 45.628L251.164 1.113 274.107 1.113 274.107 6.038 256.838 6.038 256.838 20.353 272.874 20.353 272.874 25.223 256.838 25.223 256.838 40.705 274.545 40.705 274.545 45.628zM299.95 45.628c-.288-.652-.513-1.412-.686-2.28-.159-.856-.288-1.765-.362-2.708l-.375-6.852c-.085-1.64-.247-2.999-.493-4.067-.247-1.072-.653-1.95-1.231-2.645-.578-.707-1.425-1.2-2.527-1.488-1.113-.28-2.516-.428-4.196-.428h-5.183v20.468h-5.728V1.113h16.028c.781 0 1.746.14 2.902.427 1.146.29 2.237.847 3.265 1.672 1.027.814 1.937 1.949 2.718 3.382.782 1.447 1.168 3.297 1.168 5.558 0 2.793-.696 5.074-2.1 6.841-1.389 1.765-3.414 2.922-6.037 3.456 1.348.206 2.483.549 3.385 1.05.91.493 1.625 1.168 2.162 2.034.534.858.92 1.885 1.176 3.083.246 1.19.408 2.57.493 4.133l.055 1.595c.085 1.938.225 3.824.438 5.676.203 1.85.557 3.725 1.05 5.608h-5.923zm-.491-32.738c0-1.894-.332-3.308-.998-4.262-.652-.94-1.433-1.595-2.332-1.968-.91-.365-1.757-.578-2.538-.622-.781-.033-1.327-.033-1.658 0h-7.036v14.315h6.605c.527 0 1.234-.044 2.089-.13.869-.073 1.757-.342 2.656-.802.91-.45 1.647-1.19 2.214-2.217.578-1.028.91-2.462.998-4.314zM332.08 13.008c0-5.427-2.41-8.138-7.217-8.138-2.27 0-3.994.376-5.18 1.116-1.2.737-2.078 1.86-2.656 3.393-.578 1.52-.858 3.448-.858 5.791 0 2.346-.041 5.139-.129 8.384 0 2.59.022 4.999.066 7.216.044 2.226.32 4.13.855 5.737.537 1.606 1.447 2.88 2.722 3.823 1.271.943 3.146 1.422 5.61 1.422 1.187 0 2.387-.148 3.574-.438 1.19-.288 2.258-.781 3.212-1.477v-13.2h-8.148v-5.054h13.876V43.23c-3.908 2.173-8.159 3.267-12.76 3.267-3.621 0-6.414-.622-8.385-1.853-1.981-1.23-3.458-2.88-4.442-4.936s-1.563-4.454-1.724-7.206c-.17-2.76-.269-5.577-.31-8.457v-5.92c0-1.927.118-3.8.365-5.61.244-1.81.64-3.446 1.175-4.934.538-1.477 1.37-2.774 2.527-3.876 1.146-1.115 2.59-1.981 4.314-2.592 1.724-.62 3.93-.932 6.597-.932 2.344 0 4.325.225 5.92.685 1.606.45 2.944 1.211 4.015 2.28 1.07 1.072 1.81 2.38 2.215 3.942.42 1.562.644 3.543.685 5.92h-5.92zM366.36 45.628c-.29-.652-.515-1.412-.674-2.28-.173-.856-.29-1.765-.375-2.708l-.365-6.852c-.085-1.64-.247-2.999-.49-4.067-.247-1.072-.667-1.95-1.245-2.645-.567-.707-1.411-1.2-2.524-1.488-1.105-.28-2.505-.428-4.188-.428h-5.18v20.468h-5.739V1.113h16.036c.784 0 1.746.14 2.892.427 1.156.29 2.247.847 3.275 1.672 1.028.814 1.93 1.949 2.71 3.382.781 1.447 1.176 3.297 1.176 5.558 0 2.793-.704 5.074-2.097 6.841-1.403 1.765-3.415 2.922-6.048 3.456 1.359.206 2.494.549 3.393 1.05.899.493 1.628 1.168 2.162 2.034.535.858.921 1.885 1.168 3.083.246 1.19.405 2.57.493 4.133l.063 1.595c.085 1.938.225 3.824.428 5.676.202 1.85.556 3.725 1.05 5.608h-5.92zm-.493-32.738c0-1.894-.332-3.308-.984-4.262-.663-.94-1.436-1.595-2.346-1.968-.899-.365-1.743-.578-2.527-.622-.781-.033-1.337-.033-1.67 0h-7.02v14.315h6.593c.535 0 1.23-.044 2.097-.13.869-.073 1.746-.342 2.656-.802.899-.45 1.639-1.19 2.217-2.217.578-1.028.899-2.462.984-4.314zM402.557 45.628l-3.2-10.599h-17.205l-3.277 10.599h-5.792l14.12-44.515h7.217l14.496 44.515h-6.359zm-11.895-39.28l-7.161 23.863h14.43l-7.269-23.863zM439.804 24.357c0 3.5-.184 6.561-.556 9.184-.365 2.634-1.168 4.862-2.399 6.671-1.233 1.798-3.02 3.157-5.363 4.067-2.346.9-5.47 1.349-9.379 1.349h-9.924V1.113h12.942c3.33 0 5.963.515 7.901 1.543 1.927 1.028 3.404 2.546 4.432 4.56 1.028 2.012 1.672 4.465 1.916 7.335.246 2.877.386 6.144.43 9.806zm-5.676-1.66c0-3.213-.118-5.877-.362-8.02-.247-2.14-.718-3.843-1.425-5.117-.696-1.275-1.702-2.185-3.018-2.72-1.318-.534-3.042-.802-5.182-.802h-6.222v34.667h4.369c2.634 0 4.733-.246 6.295-.75 1.563-.494 2.752-1.434 3.577-2.826.822-1.403 1.36-3.234 1.606-5.493.244-2.258.362-5.245.362-8.94zM474.587 30.77c0 2.3-.225 4.4-.675 6.293-.46 1.886-1.22 3.555-2.29 4.99-1.061 1.445-2.484 2.528-4.252 3.276-1.765.74-3.971 1.124-6.594 1.168-4.604 0-8.039-1.275-10.3-3.824-2.258-2.546-3.415-6.06-3.456-10.543V1.113h5.674V32c0 3.168.685 5.555 2.033 7.161 1.36 1.596 3.393 2.42 6.104 2.464 1.647 0 3.006-.268 4.078-.803 1.06-.537 1.905-1.252 2.527-2.154.609-.91 1.028-2.023 1.23-3.338.203-1.307.332-2.689.376-4.122V1.113h5.545V30.77zM507.273 45.628l-3.212-10.599h-17.204l-3.267 10.599h-5.802l14.131-44.515h7.206l14.495 44.515h-6.347zm-11.906-39.28l-7.15 23.863h14.43l-7.28-23.863zM530.024 6.038L530.024 45.628 524.295 45.628 524.295 6.038 512.636 6.038 512.636 1.113 541.746 1.113 541.746 6.038zM544.829 45.628L544.829 1.113 567.761 1.113 567.761 6.038 550.502 6.038 550.502 20.353 566.53 20.353 566.53 25.223 550.502 25.223 550.502 40.705 568.199 40.705 568.199 45.628zM609.204 45.628l-3.202-10.599h-17.214l-3.264 10.599h-5.794l14.123-44.515h7.216l14.485 44.515h-6.35zM597.3 6.348l-7.154 23.863h14.433L597.3 6.348zM646.45 24.357c0 3.5-.18 6.561-.556 9.184-.365 2.634-1.168 4.862-2.398 6.671-1.242 1.798-3.029 3.157-5.375 4.067-2.332.9-5.46 1.349-9.368 1.349h-9.924V1.113h12.945c3.33 0 5.963.515 7.89 1.543 1.938 1.028 3.415 2.546 4.443 4.56 1.028 2.012 1.67 4.465 1.916 7.335.246 2.877.386 6.144.427 9.806zm-5.673-1.66c0-3.213-.118-5.877-.365-8.02-.246-2.14-.729-3.843-1.422-5.117-.696-1.275-1.705-2.185-3.02-2.72-1.319-.534-3.04-.802-5.183-.802h-6.23v34.667h4.38c2.634 0 4.73-.246 6.293-.75 1.565-.494 2.751-1.434 3.576-2.826.825-1.403 1.36-3.234 1.606-5.493.247-2.258.365-5.245.365-8.94zM689.307 45.628L689.307 6.104 676.727 45.628 671.427 45.628 659.03 6.104 659.03 45.628 653.795 45.628 653.795 1.113 662.98 1.113 674.266 38.477 685.668 1.113 694.734 1.113 694.734 45.628zM702.937 45.628L708.676 45.628 708.676 1.113 702.937 1.113zM742.162 34.344c0 1.853-.31 3.503-.931 4.936-.609 1.445-1.54 2.697-2.771 3.758-1.234 1.071-2.7 1.875-4.38 2.409-1.68.534-3.577.825-5.673.866-4.273 0-7.53-1.047-9.744-3.146-2.217-2.1-3.352-5.183-3.393-9.25V32h5.608v1.241c0 2.55.685 4.54 2.036 5.975 1.36 1.445 3.232 2.182 5.619 2.226 2.346 0 4.229-.642 5.676-1.916 1.433-1.274 2.151-2.998 2.151-5.183 0-1.562-.471-2.91-1.414-4.067-.951-1.146-2.097-2.078-3.456-2.774l-6.285-3.33c-3.127-1.647-5.385-3.415-6.788-5.298-1.404-1.896-2.1-4.133-2.1-6.723 0-3.705 1.2-6.607 3.577-8.693 2.387-2.1 5.632-3.15 9.743-3.15 3.994 0 7.011 1.007 9.067 3.021 2.055 2.012 3.083 5.021 3.083 9.003v.984h-5.92v-.803c0-2.258-.534-4.023-1.606-5.298-1.069-1.274-2.771-1.937-5.117-1.97-2.217 0-3.939.545-5.183 1.66-1.23 1.113-1.839 2.698-1.839 4.753 0 1.146.244 2.174.737 3.083.494.9 1.146 1.702 1.971 2.399.825.707 1.702 1.315 2.656 1.852.94.535 1.905 1.006 2.889 1.423 1.65.74 3.03 1.477 4.133 2.217 1.112.737 1.83 1.253 2.162 1.54 2.014 1.606 3.437 3.15 4.25 4.627.826 1.477 1.242 3.33 1.242 5.544zM773.67 34.344c0 1.853-.31 3.503-.92 4.936-.62 1.445-1.541 2.697-2.783 3.758-1.233 1.071-2.688 1.875-4.38 2.409-1.68.534-3.576.825-5.673.866-4.273 0-7.518-1.047-9.743-3.146-2.217-2.1-3.352-5.183-3.382-9.25V32h5.607v1.241c0 2.55.677 4.54 2.037 5.975 1.36 1.445 3.22 2.182 5.607 2.226 2.346 0 4.24-.642 5.676-1.916 1.434-1.274 2.163-2.998 2.163-5.183 0-1.562-.483-2.91-1.425-4.067-.94-1.146-2.097-2.078-3.456-2.774l-6.285-3.33c-3.127-1.647-5.386-3.415-6.789-5.298-1.392-1.896-2.088-4.133-2.088-6.723 0-3.705 1.19-6.607 3.576-8.693 2.377-2.1 5.633-3.15 9.744-3.15 3.982 0 7 1.007 9.055 3.021 2.056 2.012 3.084 5.021 3.084 9.003v.984h-5.92v-.803c0-2.258-.524-4.023-1.596-5.298-1.068-1.274-2.781-1.937-5.117-1.97-2.225 0-3.949.545-5.182 1.66-1.23 1.113-1.85 2.698-1.85 4.753 0 1.146.244 2.174.737 3.083.493.9 1.157 1.702 1.97 2.399.826.707 1.714 1.315 2.656 1.852.94.535 1.916 1.006 2.9 1.423 1.639.74 3.02 1.477 4.133 2.217 1.102.737 1.83 1.253 2.152 1.54 2.014 1.606 3.436 3.15 4.261 4.627.825 1.477 1.231 3.33 1.231 5.544zM780.33 45.628L786.069 45.628 786.069 1.113 780.33 1.113zM821.773 24.486c0 2.793-.085 5.481-.247 8.071-.17 2.59-.707 4.936-1.606 7.033-.91 2.1-2.324 3.738-4.25 4.936-1.939 1.19-4.69 1.809-8.264 1.853-2.796 0-5.087-.46-6.852-1.36-1.768-.91-3.138-2.184-4.133-3.823-.984-1.647-1.68-3.522-2.089-5.61-.416-2.097-.6-4.377-.556-6.852V18.629c0-2.472.118-4.84.365-7.099.246-2.258.866-4.229 1.852-5.92.984-1.68 2.388-3.04 4.196-4.07C802 .515 804.503 0 807.705 0c3.256 0 5.824.556 7.71 1.67 1.893 1.104 3.296 2.58 4.195 4.434.91 1.85 1.5 4.012 1.787 6.476.29 2.461.42 5 .376 7.59v4.316zm-5.802-5.002c0-1.562-.022-3.201-.055-4.933-.041-1.724-.31-3.308-.803-4.745-.49-1.444-1.294-2.612-2.41-3.51-1.112-.91-2.77-1.382-4.998-1.426-2.826 0-4.882.847-6.167 2.527-1.275 1.691-1.927 4.487-1.97 8.395v13.189c0 2.302.15 4.261.43 5.857.287 1.606.748 2.902 1.359 3.886.62.984 1.466 1.713 2.527 2.162 1.069.45 2.321.675 3.768.675 2.012 0 3.574-.321 4.679-.984 1.113-.655 1.938-1.628 2.472-2.903.534-1.274.866-2.858.984-4.741.129-1.897.184-4.111.184-6.66v-6.79zM851.984 45.628L834.287 7.033 834.287 45.628 829.17 45.628 829.17 1.113 837.126 1.113 854.64 39.217 854.64 1.113 859.694 1.113 859.694 45.628zM892.807 34.344c0 1.853-.31 3.503-.92 4.936-.623 1.445-1.544 2.697-2.774 3.758-1.242 1.071-2.697 1.875-4.377 2.409-1.694.534-3.577.825-5.676.866-4.281 0-7.526-1.047-9.74-3.146-2.23-2.1-3.353-5.183-3.397-9.25V32h5.61v1.241c0 2.55.675 4.54 2.034 5.975 1.36 1.445 3.234 2.182 5.61 2.226 2.347 0 4.24-.642 5.677-1.916 1.444-1.274 2.162-2.998 2.162-5.183 0-1.562-.471-2.91-1.425-4.067-.943-1.146-2.089-2.078-3.448-2.774l-6.295-3.33c-3.125-1.647-5.383-3.415-6.776-5.298-1.403-1.896-2.099-4.133-2.099-6.723 0-3.705 1.19-6.607 3.577-8.693 2.387-2.1 5.632-3.15 9.743-3.15 3.982 0 7.01 1.007 9.066 3.021 2.056 2.012 3.084 5.021 3.084 9.003v.984h-5.92v-.803c0-2.258-.535-4.023-1.606-5.298-1.072-1.274-2.774-1.937-5.117-1.97-2.218 0-3.952.545-5.183 1.66-1.23 1.113-1.853 2.698-1.853 4.753 0 1.146.247 2.174.74 3.083.494.9 1.157 1.702 1.982 2.399.822.707 1.702 1.315 2.642 1.852.954.535 1.918 1.006 2.902 1.423 1.65.74 3.02 1.477 4.133 2.217 1.113.737 1.831 1.253 2.163 1.54 2.011 1.606 3.426 3.15 4.25 4.627.823 1.477 1.231 3.33 1.231 5.544z"/>
    </g>
</svg>
