<?xml version="1.0" encoding="UTF-8"?>
<svg id="Layer_1" data-name="Layer 1" xmlns="http://www.w3.org/2000/svg" version="1.1" viewBox="0 0 31.5 32">
  <defs>
    <style>
      .cls-1 {
        fill: #fff;
        stroke-width: 0px;
      }
    </style>
  </defs>
  <path id="tiktok3" class="cls-1" d="M16.7,0c1.7,0,3.5,0,5.2,0,.1,2,.8,4.1,2.3,5.6,1.5,1.5,3.6,2.2,5.7,2.4v5.4c-1.9,0-3.9-.5-5.6-1.3-.8-.3-1.5-.8-2.2-1.2,0,3.9,0,7.8,0,11.7-.1,1.9-.7,3.7-1.8,5.3-1.7,2.6-4.8,4.2-7.9,4.3-1.9.1-3.8-.4-5.4-1.4-2.7-1.6-4.6-4.5-4.9-7.6,0-.7,0-1.3,0-2,.2-2.5,1.5-5,3.4-6.6,2.2-1.9,5.3-2.8,8.2-2.3,0,2,0,3.9,0,5.9-1.3-.4-2.9-.3-4,.5-.8.5-1.5,1.4-1.8,2.3-.3.7-.2,1.4-.2,2.1.3,2.2,2.4,4,4.7,3.8,1.5,0,2.9-.9,3.7-2.1.3-.4.5-.9.5-1.4.1-2.4,0-4.8,0-7.1,0-5.4,0-10.7,0-16.1h0Z"/>
</svg>