<?xml version="1.0" encoding="UTF-8"?><svg id="Layer_1" xmlns="http://www.w3.org/2000/svg" xmlns:xlink="http://www.w3.org/1999/xlink" viewBox="0 0 136.87 194.28"><defs><style>.cls-1{fill:none;}.cls-2{clip-path:url(#clippath);}.cls-3{fill:#fff;}.cls-4{fill:#235b4e;}.cls-5{clip-path:url(#clippath-1);}.cls-6{clip-path:url(#clippath-2);}</style><clipPath id="clippath"><rect class="cls-1" width="136.87" height="194.28"/></clipPath><clipPath id="clippath-1"><rect class="cls-1" y="0" width="136.87" height="194.27"/></clipPath><clipPath id="clippath-2"><rect class="cls-1" width="136.87" height="194.28"/></clipPath></defs><g class="cls-2"><path class="cls-3" d="M2.04,3.59l.02,42.47,.02,67.69c0,24.2,1.6,31.47,15.8,48.17,14.21,16.7,50.57,30.18,50.57,30.18,0,0,36.33-13.48,50.54-30.18,14.21-16.7,15.79-23.97,15.79-48.17l.04-67.69V3.59s-16.36,9.75-33.01,8.52c-18.89-1.39-33.36-8.83-33.36-8.83,0,0-14.51,7.45-33.39,8.83C18.4,13.33,2.04,3.59,2.04,3.59"/></g><g class="cls-5"><path class="cls-3" d="M68.45,194.27l-.71-.26c-1.51-.56-37.03-13.86-51.41-30.77C1.65,145.97,.05,137.95,.05,113.75L0,0,3.08,1.84c.16,.09,16.04,9.41,31.83,8.24C53.13,8.74,67.38,1.53,67.52,1.46l.93-.48,.93,.48c.14,.07,14.36,7.27,32.58,8.61,15.81,1.17,31.67-8.14,31.83-8.24L136.87,0l-.04,113.74c0,24.22-1.6,32.24-16.27,49.49-14.4,16.91-49.89,30.21-51.39,30.77l-.71,.26ZM4.08,6.99l.04,106.76c0,23.75,1.32,30.4,15.32,46.85,12.62,14.84,43.91,27.35,49.02,29.32,5.11-1.98,36.36-14.49,48.99-29.32,13.98-16.43,15.3-23.08,15.3-46.85l.04-106.76c-5.64,2.81-18.2,8.1-31.13,7.15-16.58-1.22-29.66-6.92-33.21-8.6-3.55,1.68-16.66,7.38-33.24,8.6-12.93,.97-25.49-4.34-31.13-7.15Z"/></g><g class="cls-6"><path class="cls-4" d="M68.37,123.35c-4.64,0-19.24,1.38-29.55-8.94-2.75-2.92-6.03-9.14-6.03-19.65v-31.59s1.15-19.31-5.84-22.54l.54-2.64s21.26-3.47,26.27-6.03l1.46,8.14s-10.4,.77-10.4,13.3c.08-.07,.04,36.31,.04,36.31,0,0-.13,6.12,1.37,10.01,2.1,5.44,5.5,7.86,22.07,7.86"/><path class="cls-3" d="M64.3,123.92c-6.47,0-17.56-.86-25.84-9.15-1.86-1.98-6.18-7.88-6.18-20.01v-31.59c.01-.22,1.05-19.03-5.55-22.08l-.37-.17,.69-3.38,.35-.06c.21-.04,21.24-3.49,26.12-5.98l.61-.31,1.68,9.37-.56,.04c-.41,.03-9.93,.9-9.93,12.79h-.11c.18,1.44,.18,7.7,.15,36.31,0,.07-.11,6.08,1.34,9.83,2.05,5.31,5.5,7.53,21.6,7.53v1.02c-16.7,0-20.32-2.41-22.55-8.18-1.52-3.94-1.41-9.95-1.4-10.21,.01-11.57,.02-33.09-.02-35.94h-.01v-.35c0-11.15,8.1-13.34,10.32-13.73l-1.25-6.97c-5.54,2.37-22.7,5.28-25.46,5.73l-.39,1.92c6.83,3.79,5.82,22.06,5.78,22.85v31.56c0,11.76,4.12,17.41,5.89,19.3,9.22,9.22,22.16,8.93,27.68,8.8,.57-.01,1.08-.02,1.5-.02v1.02c-.42,0-.91,.01-1.48,.02-.74,.02-1.61,.04-2.59,.04Z"/><path class="cls-4" d="M68.36,123.35c4.64,0,19.24,1.38,29.55-8.94,2.74-2.92,6.04-9.14,6.04-19.65v-31.59s-1.16-19.31,5.83-22.54l-.54-2.64s-21.26-3.47-26.27-6.03l-1.46,8.14s10.4,.77,10.4,13.3c-.07-.07-.04,36.31-.04,36.31,0,0,.13,6.12-1.37,10.01-2.1,5.44-5.5,7.86-22.07,7.86"/><path class="cls-3" d="M72.43,123.92c-.98,0-1.85-.02-2.59-.04-.57-.01-1.06-.02-1.48-.02v-1.02c.42,0,.93,.01,1.5,.02,5.53,.13,18.46,.42,27.68-8.81,1.76-1.88,5.89-7.55,5.89-19.29v-31.59c-.05-.76-1.06-19.02,5.77-22.81l-.39-1.92c-2.76-.46-19.92-3.36-25.46-5.73l-1.25,6.97c2.22,.39,10.31,2.58,10.31,13.73v.36c-.06,2.87-.05,24.38-.04,35.95,0,.24,.11,6.26-1.41,10.2-2.22,5.77-5.85,8.18-22.55,8.18v-1.02c16.1,0,19.55-2.22,21.6-7.53,1.45-3.75,1.34-9.76,1.34-9.82-.03-28.6-.03-34.87,.15-36.32h-.11c0-11.93-9.52-12.77-9.93-12.79l-.56-.04,1.68-9.37,.61,.31c4.89,2.49,25.91,5.94,26.12,5.98l.35,.06,.69,3.38-.37,.17c-6.6,3.05-5.55,21.86-5.54,22.04v31.62c0,12.1-4.32,18.01-6.18,19.99-8.29,8.3-19.38,9.16-25.85,9.16Z"/><path class="cls-4" d="M68.36,52.23c30.93,0,45.96,3.97,45.96,3.97l6.48,23.27-7.13,4.11-10.76-15.61c-13.13-1.89-26.65-1.78-26.65-1.78l-.09,61.68c0,5.13,.98,8.63,5.86,8.63h9.08v15.12H45.61v-15.12h9.09c4.89,0,5.86-3.5,5.86-8.63l-.1-61.68s-13.52-.11-26.64,1.78l-10.77,15.61-7.12-4.11,6.48-23.27s15-3.97,45.95-3.97h0Z"/><path class="cls-3" d="M91.62,152.14H45.1v-16.14h9.6c3.9,0,5.35-2.2,5.35-8.13l-.09-61.17c-2.55,0-14.39,.11-25.84,1.74l-10.91,15.81-7.87-4.55,6.67-23.93,.28-.07c.15-.04,15.42-3.99,46.08-3.99h0c30.64,0,45.93,3.95,46.08,3.99l.28,.07,6.67,23.93-7.88,4.55-.27-.39-10.63-15.43c-11.46-1.63-23.3-1.74-25.85-1.74l-.09,61.17c0,5.92,1.45,8.13,5.35,8.13h9.59v16.14Zm-23.16-1.02h22.14v-14.1h-8.57c-5.6,0-6.37-4.4-6.37-9.14l.09-62.18h.5c.13,0,13.71-.1,26.73,1.78l.22,.03,.13,.18,10.49,15.22,6.38-3.68-6.3-22.6c-2.2-.53-17.31-3.88-45.54-3.88s-43.34,3.36-45.54,3.88l-6.3,22.6,6.37,3.68,10.63-15.41,.22-.03c13.02-1.87,26.6-1.78,26.72-1.78h.5s0,.51,0,.51l.09,61.68c0,4.75-.77,9.15-6.37,9.15h-8.58v14.1h22.35Z"/></g></svg>