<?xml version="1.0" encoding="UTF-8"?><svg id="Layer_1" xmlns="http://www.w3.org/2000/svg" viewBox="0 0 212 31.47"><defs><style>.cls-1{fill:#fff;}</style></defs><path class="cls-1" d="m1.08,21.92c-.13-.98-.07-2.4-.07-3.1L2.49,2.08h5.48l-1.5,16.89c-.32,3.65,1.11,6.26,4.76,6.26s5.7-2.65,6.03-5.89l1.55-17.26h5.48l-1.51,17.04c-.61,6.56-4.96,11.47-12,11.47-5.49,0-9.02-3.55-9.69-8.68"/><path class="cls-1" d="m25.54,16.25c.72-8.04,6.14-14.7,15.5-14.7,2.47,0,4.83.56,7.2,2.08l-.63,6.64c-2.16-2.84-4.73-3.3-7.09-3.3-5.83,0-9.02,4.05-9.48,9.17-.44,4.99,2.13,9.05,7.78,9.05,2.46,0,5.08-.71,7.81-3.44l-.61,6.82c-2.66,1.44-5.14,2.1-7.64,2.1-9.27,0-13.51-6.88-12.85-14.41"/><path class="cls-1" d="m52.62,2.08h5.47l-1.99,22.74h7.83c.55,0,2.42-.03,2.92-.06-.03.27-.5,5.25-.5,5.25h-16.21l2.48-27.93h0Z"/><path class="cls-1" d="m82.5.8h-.38s-14.97,29.21-14.97,29.21h5.81l2.1-4.43h10.54l1.32,4.43h5.8L82.5.8h0Zm-1.4,11.7c.18-.4.34-.89.4-1.17,0,0,.09,0,.09,0,.03.35.09.77.21,1.18.3,1.27,2.43,8.34,2.43,8.34h-6.9s3.7-8.17,3.77-8.35"/><path class="cls-1" d="m105.9,8.66V.8h2.35v7.86c0,1.2.6,2.04,2.17,2.04s2.19-.87,2.19-2.07V.8h2.35v7.86c0,2.48-1.52,3.92-4.49,3.92s-4.57-1.41-4.57-3.92h0Z"/><path class="cls-1" d="m118.66,5.21h.05c.57-.89,1.33-1.36,2.46-1.36,1.72,0,2.87,1.3,2.87,3.11v5.43h-2.2v-5.1c0-.89-.52-1.52-1.44-1.52-.97,0-1.68.78-1.68,1.91v4.71h-2.2V4.08h2.15v1.13h0Z"/><path class="cls-1" d="m131.02,8.29c0-1.59-.52-2.66-1.93-2.66-1.22,0-1.83,1.07-1.83,2.61s.63,2.54,1.77,2.54c1.31,0,1.99-.97,1.99-2.49h0Zm-5.99-.05c0-2.59,1.47-4.39,3.55-4.39,1.17,0,1.89.53,2.35,1.23h.05V.8h2.2v11.58h-2.12v-1.08h-.03c-.49.79-1.31,1.33-2.48,1.33-2.09,0-3.51-1.7-3.51-4.39h0Z"/><path class="cls-1" d="m136.4,7.33h3.69c-.07-1.05-.76-1.78-1.77-1.78-1.17,0-1.73.7-1.93,1.78h0Zm-2.2.89c0-2.46,1.67-4.37,4.1-4.37,2.67,0,4.1,2.04,4.1,5h-6.03c.16,1.28.87,2.07,2.12,2.07.86,0,1.36-.39,1.6-1.02h2.17c-.31,1.47-1.62,2.72-3.76,2.72-2.75,0-4.31-1.93-4.31-4.41h0Z"/><path class="cls-1" d="m145.53,5.41h.05c.5-.94,1.07-1.42,2.04-1.42.24,0,.39.02.52.06v1.93h-.05c-1.44-.15-2.48.62-2.48,2.36v4.05h-2.2V4.08h2.12v1.33h0Z"/><path class="cls-1" d="m154.56,7.87c0-1.21-.65-2.25-1.98-2.25-1.12,0-1.86.87-1.86,2.27s.74,2.24,1.88,2.24c1.39,0,1.96-1.02,1.96-2.25h0Zm-5.82,4.76h2.19c.18.52.65.92,1.67.92,1.25,0,1.85-.6,1.85-1.73v-.91h-.05c-.49.55-1.12.97-2.17.97-1.85,0-3.66-1.46-3.66-3.97s1.49-4.07,3.6-4.07c1.04,0,1.8.41,2.3,1.1h.03v-.87h2.12v7.68c0,1.17-.37,1.96-.99,2.53-.7.65-1.77.94-3,.94-2.27,0-3.66-.97-3.89-2.59h0Z"/><path class="cls-1" d="m160.17,5.41h.05c.5-.94,1.07-1.42,2.04-1.42.24,0,.39.02.52.06v1.93h-.05c-1.44-.15-2.48.62-2.48,2.36v4.05h-2.2V4.08h2.12v1.33h0Z"/><path class="cls-1" d="m168.51,9.45v-1.25c-.39.23-.99.36-1.54.49-1.15.26-1.72.52-1.72,1.3s.52,1.05,1.3,1.05c1.26,0,1.96-.78,1.96-1.59h0Zm-.02,2.01h-.03c-.42.63-1.02,1.12-2.45,1.12-1.7,0-2.9-.89-2.9-2.54,0-1.83,1.49-2.41,3.34-2.67,1.38-.19,2.01-.31,2.01-.94s-.47-.99-1.39-.99c-1.04,0-1.54.37-1.6,1.17h-1.96c.06-1.46,1.15-2.74,3.58-2.74s3.5,1.12,3.5,3.06v4.23c0,.63.1,1,.29,1.15v.08h-2.12c-.13-.16-.21-.55-.26-.92h0Z"/><path class="cls-1" d="m177.54,8.29c0-1.59-.52-2.66-1.93-2.66-1.21,0-1.83,1.07-1.83,2.61s.63,2.54,1.77,2.54c1.31,0,1.99-.97,1.99-2.49h0Zm-5.99-.05c0-2.59,1.47-4.39,3.55-4.39,1.17,0,1.89.53,2.35,1.23h.05V.8h2.2v11.58h-2.12v-1.08h-.03c-.49.79-1.31,1.33-2.48,1.33-2.09,0-3.52-1.7-3.52-4.39h0Z"/><path class="cls-1" d="m186.39,12.39v-.97h-.05c-.57.76-1.21,1.2-2.38,1.2-1.85,0-2.88-1.18-2.88-3v-5.54h2.19v5.17c0,.97.44,1.51,1.38,1.51,1.04,0,1.67-.78,1.67-1.88v-4.79h2.2v8.31h-2.12Z"/><path class="cls-1" d="m194.93,9.45v-1.25c-.39.23-.99.36-1.54.49-1.15.26-1.72.52-1.72,1.3s.52,1.05,1.3,1.05c1.26,0,1.96-.78,1.96-1.59h0Zm-.02,2.01h-.03c-.42.63-1.02,1.12-2.45,1.12-1.7,0-2.9-.89-2.9-2.54,0-1.83,1.49-2.41,3.34-2.67,1.38-.19,2.01-.31,2.01-.94s-.47-.99-1.39-.99c-1.04,0-1.54.37-1.6,1.17h-1.96c.07-1.46,1.15-2.74,3.58-2.74s3.5,1.12,3.5,3.06v4.23c0,.63.1,1,.29,1.15v.08h-2.12c-.13-.16-.21-.55-.26-.92h0Z"/><path class="cls-1" d="m197.67,4.08h1.15V1.49h2.15v2.59h1.43v1.46h-1.43v4.41c0,.62.34.83.83.83.28,0,.65-.02.65-.02v1.62s-.5.03-1.38.03c-1.07,0-2.25-.42-2.25-1.99v-4.87h-1.15v-1.46h0Z"/><path class="cls-1" d="m205.01,7.33h3.69c-.06-1.05-.76-1.78-1.77-1.78-1.17,0-1.73.7-1.93,1.78h0Zm-2.2.89c0-2.46,1.67-4.37,4.1-4.37,2.67,0,4.1,2.04,4.1,5h-6.03c.16,1.28.87,2.07,2.12,2.07.86,0,1.36-.39,1.6-1.02h2.17c-.31,1.47-1.62,2.72-3.76,2.72-2.75,0-4.31-1.93-4.31-4.41h0Z"/><path class="cls-1" d="m108.85,25.51h3.06l-1.04-3.34c-.19-.62-.47-1.78-.47-1.78h-.03s-.29,1.17-.49,1.78l-1.04,3.34h0Zm.34-7.32h2.43l4.08,11.58h-2.45l-.78-2.46h-4.18l-.76,2.46h-2.38l4.03-11.58h0Z"/><path class="cls-1" d="m121.84,25.67c0-1.59-.52-2.66-1.93-2.66-1.22,0-1.83,1.07-1.83,2.61s.63,2.54,1.77,2.54c1.31,0,1.99-.97,1.99-2.49h0Zm-5.99-.05c0-2.59,1.47-4.39,3.55-4.39,1.17,0,1.89.53,2.35,1.23h.05v-4.28h2.2v11.58h-2.12v-1.08h-.03c-.49.79-1.31,1.33-2.48,1.33-2.09,0-3.51-1.7-3.51-4.39h0Z"/><path class="cls-1" d="m125.42,21.46h2.12v1.12h.05c.45-.76,1.26-1.34,2.41-1.34,1.05,0,1.9.58,2.3,1.46h.03c.57-.91,1.44-1.46,2.49-1.46,1.75,0,2.74,1.13,2.74,2.95v5.59h-2.2v-5.22c0-.94-.47-1.43-1.28-1.43-.92,0-1.49.71-1.49,1.81v4.83h-2.2v-5.22c0-.94-.47-1.43-1.28-1.43-.89,0-1.49.71-1.49,1.81v4.83h-2.2v-8.31h0Z"/><path class="cls-1" d="m138.97,21.46h2.2v8.31h-2.2v-8.31h0Zm0-3.27h2.2v1.98h-2.2v-1.98h0Z"/><path class="cls-1" d="m142.11,27.08h2.04c.15.96.83,1.38,1.81,1.38s1.52-.37,1.52-.96c0-.79-1.05-.87-2.19-1.1-1.49-.29-2.95-.7-2.95-2.51s1.49-2.66,3.39-2.66c2.19,0,3.4,1.09,3.56,2.75h-1.99c-.1-.89-.66-1.21-1.6-1.21-.86,0-1.43.32-1.43.92,0,.71,1.1.78,2.28,1.02,1.39.29,2.93.68,2.93,2.62,0,1.67-1.42,2.67-3.5,2.67-2.41,0-3.76-1.17-3.89-2.93h0Z"/><path class="cls-1" d="m150.02,27.08h2.04c.15.96.83,1.38,1.81,1.38s1.52-.37,1.52-.96c0-.79-1.05-.87-2.19-1.1-1.49-.29-2.95-.7-2.95-2.51s1.49-2.66,3.39-2.66c2.19,0,3.4,1.09,3.56,2.75h-1.99c-.1-.89-.66-1.21-1.6-1.21-.86,0-1.42.32-1.42.92,0,.71,1.1.78,2.28,1.02,1.39.29,2.93.68,2.93,2.62,0,1.67-1.42,2.67-3.5,2.67-2.41,0-3.76-1.17-3.89-2.93h0Z"/><path class="cls-1" d="m158.45,21.46h2.2v8.31h-2.2v-8.31h0Zm0-3.27h2.2v1.98h-2.2v-1.98h0Z"/><path class="cls-1" d="m168.09,25.62c0-1.62-.76-2.72-2.11-2.72s-2.11,1.1-2.11,2.72.74,2.71,2.11,2.71,2.11-1.09,2.11-2.71h0Zm-6.45,0c0-2.48,1.77-4.39,4.34-4.39s4.34,1.91,4.34,4.39-1.77,4.39-4.34,4.39-4.34-1.91-4.34-4.39h0Z"/><path class="cls-1" d="m173.5,22.59h.05c.57-.89,1.33-1.36,2.46-1.36,1.72,0,2.87,1.3,2.87,3.11v5.43h-2.2v-5.1c0-.89-.52-1.52-1.44-1.52-.97,0-1.68.78-1.68,1.91v4.71h-2.2v-8.31h2.15v1.13h0Z"/></svg>