<?xml version="1.0" encoding="UTF-8"?>
<svg width="30px" height="30px" viewBox="0 0 30 30" version="1.1" xmlns="http://www.w3.org/2000/svg" xmlns:xlink="http://www.w3.org/1999/xlink">
    <title>Path</title>
    <g id="Menu" stroke="none" stroke-width="1" fill="none" fill-rule="evenodd">
        <g id="menu----expanded" transform="translate(-1089.000000, -616.000000)" fill="#000000">
            <g id="Group" transform="translate(924.000000, 430.000000)">
                <g id="Social" transform="translate(0.000000, 186.000000)">
                    <path d="M191.785714,0 L168.214286,0 C166.439085,0 165,1.43908473 165,3.21428571 L165,26.7857143 C165,28.5609153 166.439085,30 168.214286,30 L177.405134,30 L177.405134,19.8006696 L173.186384,19.8006696 L173.186384,15 L177.405134,15 L177.405134,11.3410714 C177.405134,7.17924107 179.882813,4.88035714 183.677679,4.88035714 C185.495089,4.88035714 187.395536,5.20446429 187.395536,5.20446429 L187.395536,9.28928571 L185.301563,9.28928571 C183.238393,9.28928571 182.594866,10.5696429 182.594866,11.8828125 L182.594866,15 L187.20067,15 L186.464063,19.8006696 L182.594866,19.8006696 L182.594866,30 L191.785714,30 C193.560915,30 195,28.5609153 195,26.7857143 L195,3.21428571 C195,1.43908473 193.560915,0 191.785714,0 L191.785714,0 Z" id="Path"></path>
                </g>
            </g>
        </g>
    </g>
</svg>