<?xml version="1.0" encoding="UTF-8"?>
<svg id="Layer_1" data-name="Layer 1" xmlns="http://www.w3.org/2000/svg" version="1.1" viewBox="0 0 16 16">
  <defs>
    <style>
      .cls-1 {
        fill: #fff;
        fill-rule: evenodd;
        stroke-width: 0px;
      }
    </style>
  </defs>
  <path id="facebook" class="cls-1" d="M15.1,0H.9C.4,0,0,.4,0,.9h0v14.2c0,.5.4.9.9.9h7.7v-6.2h-2.1v-2.4h2.1v-1.8c0-2.1,1.3-3.2,3.1-3.2.6,0,1.2,0,1.9,0v2.2h-1.3c-1,0-1.2.5-1.2,1.2v1.5h2.4l-.3,2.4h-2.1v6.2h4.1c.5,0,.9-.4.9-.9V.9C16,.4,15.6,0,15.1,0h0Z"/>
</svg>