<?xml version="1.0" encoding="UTF-8"?>
<svg id="Layer_1" data-name="Layer 1" xmlns="http://www.w3.org/2000/svg" version="1.1" viewBox="0 0 16 16">
  <defs>
    <style>
      .cls-1 {
        fill: #fff;
        fill-rule: evenodd;
        stroke-width: 0px;
      }
    </style>
  </defs>
  <path id="instagram" class="cls-1" d="M8.9,0c.6,0,1.1,0,1.7,0h.2s.5,0,.5,0c.9,0,1.4.2,1.9.4.5.2,1,.5,1.4.9.4.4.7.9.9,1.4.2.5.3,1.1.4,1.9,0,.2,0,.3,0,.5v.2c0,.4,0,.8,0,1.7v.7s0,1.2,0,1.2c0,.6,0,1.1,0,1.7v.2s0,.5,0,.5c0,.9-.2,1.4-.4,1.9-.2.5-.5,1-.9,1.4-.4.4-.9.7-1.4.9-.5.2-1.1.3-1.9.4-.2,0-.3,0-.5,0h-.2c-.6,0-1.1,0-1.7,0h-1.9c-.6,0-1.1,0-1.7,0h-.2s-.5,0-.5,0c-.8,0-1.4-.2-1.9-.4-.5-.2-1-.5-1.4-.9-.4-.4-.7-.9-.9-1.4-.2-.5-.3-1.1-.4-1.9,0-.2,0-.3,0-.5v-.2C0,10.1,0,9.5,0,8.9v-1.9c0-.6,0-1.1,0-1.7v-.2s0-.5,0-.5c0-.8.2-1.4.4-1.9.2-.5.5-1,.9-1.4.4-.4.9-.7,1.4-.9.5-.2,1.1-.3,1.9-.4.2,0,.3,0,.5,0h.2C5.9,0,6.5,0,7.1,0h1.9ZM8.7,1.4h-1.4c-.9,0-1.4,0-1.8,0h-.2c-.2,0-.3,0-.6,0-.8,0-1.2.2-1.5.3-.4.1-.6.3-.9.6-.3.3-.5.5-.6.9-.1.3-.2.7-.3,1.5,0,.2,0,.4,0,.6v.2c0,.4,0,.9,0,1.8v1.4c0,.9,0,1.4,0,1.8v.2c0,.2,0,.4,0,.6,0,.8.2,1.2.3,1.5.1.4.3.6.6.9s.5.5.9.6c.3.1.7.2,1.5.3.2,0,.4,0,.6,0h.2c.4,0,.9,0,1.8,0h1.4c.6,0,1.2,0,1.8,0h.2c.2,0,.4,0,.6,0,.8,0,1.2-.2,1.5-.3.4-.1.6-.3.9-.6s.5-.5.6-.9c.1-.3.2-.7.3-1.5,0-.2,0-.4,0-.6v-.2c0-.4,0-.9,0-1.8v-1.4c0-.6,0-1.2,0-1.8v-.2c0-.2,0-.3,0-.6,0-.8-.2-1.2-.3-1.5-.1-.3-.3-.7-.6-.9-.3-.3-.6-.5-.9-.6-.3-.1-.7-.2-1.5-.3-.2,0-.4,0-.6,0h-.2c-.6,0-1.2,0-1.8,0ZM8,3.9c2.3,0,4.1,1.8,4.1,4.1s-1.8,4.1-4.1,4.1h0c-2.3,0-4.1-1.8-4.1-4.1s1.8-4.1,4.1-4.1ZM8,5.3c1.5,0,2.7,1.2,2.7,2.7s-1.2,2.7-2.7,2.7h0c-1.5,0-2.7-1.2-2.7-2.7s1.2-2.7,2.7-2.7ZM12.3,2.8c.5,0,1,.4,1,1,0,.5-.4,1-1,1h0c-.5,0-1-.4-1-1s.4-1,1-1Z"/>
</svg>