<svg viewBox="0 0 90 26" xmlns="http://www.w3.org/2000/svg" xmlns:xlink="http://www.w3.org/1999/xlink">
    <defs>
        <path id="path-1" d="M0 0h8.878v9.174H0z" />
    </defs>
    <g id="tulane-text-only" stroke="none" stroke-width="1" fill-rule="evenodd" fill="white">
        <g id="Group-34" transform="translate(0 1)">
            <g id="Group-3">
                <mask id="mask-2" fill="#fff">
                    <use xlink:href="#path-1" />
                </mask>
                <path d="M3.676 1.023H3.33c-.394 0-1.281 0-1.799.17-.394.172-.862.976-1.096 1.39-.037.06-.074.11-.136.085l-.246-.085c-.05-.025-.062-.061-.05-.122L.596.219C.62.05.694 0 .744 0 .818 0 .867.049.94.122c.246.243.493.304.838.317.665.024 1.182.073 2.39.073h.665c1.355 0 1.873-.05 2.44-.073.233-.013.702-.183.887-.317C8.259.049 8.308 0 8.382 0c.074 0 .099.049.123.195.025.22.272 1.73.37 2.315.012.073-.012.097-.05.11l-.246.085c-.049.012-.074-.025-.11-.098-.173-.341-.629-1.12-.974-1.364-.345-.195-1.454-.22-1.897-.22h-.345v6.494c0 .926.123 1.17.419 1.17h.714c.05 0 .074.048.074.11v.255c0 .073-.024.122-.123.122-.123 0-.517-.037-1.848-.037-1.257 0-1.774.037-1.947.037-.073 0-.098-.024-.098-.11v-.28c0-.073.037-.097.086-.097h.702c.247 0 .395-.147.407-.33.037-.316.037-4.044.037-4.288V1.023Z" id="Fill-1" mask="url(#mask-2)" />
            </g>
            <path d="M11.375 1.572c0-.415-.098-.61-.419-.61h-.566c-.074 0-.099-.024-.099-.11v-.28c0-.073.025-.097.123-.097.123 0 .715.037 1.898.037 1.034 0 1.626-.037 1.774-.037.074 0 .098.024.098.085v.305c0 .073-.024.097-.098.097h-.518c-.37 0-.591.22-.603.476-.013.146-.037.877-.037 1.583v1.511c0 .61.012 1.474.037 1.864.036.56.135 1.121.43 1.511.42.56 1.085.755 1.676.755.567 0 1.257-.219 1.651-.585.468-.462.715-1.17.715-2.058V3.825c0-.974-.099-2.046-.136-2.326-.037-.317-.234-.537-.505-.537h-.443c-.074 0-.099-.036-.099-.085V.573c0-.074.025-.098.099-.098.123 0 .69.037 1.503.037.763 0 1.158-.037 1.256-.037.111 0 .124.037.124.098v.28c0 .073-.013.11-.074.11h-.444c-.443 0-.493.34-.517.475-.025.146-.025 1.851-.025 2.01 0 .17-.025 2.29-.074 2.778-.074.999-.37 1.754-1.035 2.339-.517.463-1.306.755-2.242.755-.591 0-1.306-.097-1.774-.292-.715-.293-1.208-.853-1.454-1.633-.172-.536-.222-1.34-.222-2.936V1.572Z" id="Fill-4" />
            <path d="M28.352 6.628c.025.024.025.048.025.121-.05.074-.543 2.096-.616 2.425a456.98 456.98 0 0 0-5.126-.037c-1.108 0-1.552.037-1.7.037-.099 0-.099-.024-.099-.11v-.28c0-.073 0-.097.074-.097h.493c.444 0 .518-.171.518-.33 0-.219.049-3.264.049-3.996V3.68c0-.78-.025-2.07-.05-2.278-.024-.317-.073-.439-.393-.439h-.518c-.074 0-.099-.073-.099-.11v-.28c0-.073.025-.097.099-.097.123 0 .567.037 1.7.037 1.33 0 1.848-.037 1.947-.037.098 0 .123.049.123.11v.28c0 .049-.025.097-.123.097h-.666c-.37 0-.418.122-.418.451 0 .17-.05 1.998-.05 2.851v1.048c0 .22 0 2.85.05 3.375h.69c.69 0 1.577 0 2.07-.061.69-.098 1.478-1.56 1.65-2.023.05-.048.074-.073.148-.048l.222.073Z" id="Fill-6" />
            <path d="M34.844 5.3c-.123-.354-.96-3.131-1.035-3.375-.05-.146-.074-.22-.123-.22-.074 0-.123.05-.16.159-.05.158-1.158 3.156-1.245 3.436h2.563Zm-2.735.487c-.099.28-.702 2.022-.764 2.351-.025.098-.025.195-.025.256 0 .159.198.293.444.293h.517c.099 0 .124.024.124.06v.305c0 .073-.025.122-.099.122-.172 0-.69-.037-1.552-.037-.912 0-1.183.037-1.355.037-.074 0-.074-.073-.074-.158v-.232c0-.073.024-.097.074-.097h.369c.345 0 .567-.17.789-.549.123-.219 1.01-2.412 1.38-3.435l1.207-3.192c.025-.122.098-.341.025-.415a.276.276 0 0 1-.074-.146c0-.049.024-.097.123-.122.394-.097 1.072-.463 1.22-.609.073-.073.123-.122.184-.122.074 0 .124.147.148.22.222.755 1.183 3.484 1.405 4.264.295.95 1.084 3.216 1.256 3.545.222.414.542.56.789.56h.394c.074 0 .099.025.099.086v.256c0 .073-.025.146-.124.146-.221 0-.468-.037-1.823-.037-1.035 0-1.454.037-1.725.037-.098 0-.123-.073-.123-.146v-.244c0-.073.025-.097.098-.097h.32c.346 0 .445-.122.37-.451-.098-.439-.59-1.998-.739-2.449H32.11Z" id="Fill-8" />
            <path d="M41.817 3.63c0 2.072.098 3.777.123 4.155.025.61.172.902.616.902h.32c.099 0 .099.048.099.11v.28c0 .073 0 .097-.099.097-.123 0-.862-.037-1.33-.037-.32 0-1.158.037-1.282.037-.049 0-.074-.024-.074-.11V8.76c0-.025.025-.073.074-.073h.42c.32 0 .492-.268.554-1.012.012-.219.086-1.925.086-3.874V2.254c0-.731-.42-1.292-.961-1.292h-.394c-.05-.012-.074-.036-.074-.085V.548c0-.049.024-.073.074-.073.061 0 .16.012.382.024.221.013.554.013 1.096.013.21 0 .394-.013.542-.025.16 0 .271-.012.345-.012.148 0 .222.037.296.11.123.121 2.538 3.119 2.784 3.46.173.195 2.095 2.558 2.292 2.802h.049V5.58c0-1.072 0-1.682-.025-2.29-.024-.463-.074-1.658-.135-1.865-.086-.292-.357-.463-.653-.463h-.395c-.073 0-.073-.048-.073-.11v-.28c0-.073 0-.097.098-.097.148 0 .542.037 1.38.037.74 0 1.035-.037 1.183-.037.098 0 .123.049.123.085v.28c0 .074-.025.122-.074.122h-.345c-.246 0-.37.195-.406.646-.062.829-.185 2.875-.185 4.118v3.216c0 .171 0 .342-.148.342a.616.616 0 0 1-.419-.195c-.098-.122-.764-.877-1.528-1.779-.862-1.048-1.823-2.193-1.97-2.388-.173-.17-2.144-2.607-2.293-2.778h-.073v1.487Z" id="Fill-10" />
            <path d="M53.927 5.604c.012.658.037 1.852.037 2.071 0 .634.221.878.492.95.197.05.493.098.961.098.222 0 .789-.024 1.035-.049.222-.024.69-.146 1.01-.414.222-.195.912-.999 1.146-1.291.05-.061.087-.073.136-.049l.197.122c.037.024.05.06.025.122l-.592 1.827c-.037.11-.123.183-.27.183-.062 0-.334-.012-1.097-.024-.776 0-2.046-.013-4.103-.013-.456 0-.788.013-1.047.013-.246.012-.419.024-.53.024-.074 0-.099-.024-.099-.097v-.293c0-.073.025-.097.124-.097h.419c.566 0 .616-.073.616-.524V4.069c0-.999-.025-2.51-.05-2.68-.049-.33-.172-.427-.542-.427h-.468c-.05 0-.074-.024-.074-.085V.56c0-.06.013-.085.074-.085.271 0 .715.049 1.725.037h.345c.542 0 3.376-.025 3.918-.025.197 0 .431-.012.492-.012.062 0 .087.024.1.073.048.159.517 1.816.566 1.937.024.073.012.11-.037.134l-.222.098c-.037.012-.074 0-.11-.061-.05-.073-1.06-1.194-1.356-1.365-.259-.146-.591-.304-.936-.316L53.939.926l-.025 3.52c.37 0 1.257-.023 1.405-.06.27-.049.419-.146.567-.439.073-.158.197-.463.197-.682 0-.073.049-.097.098-.097l.32.024c.05 0 .087.024.075.098-.025.194-.025.998-.025 1.315 0 .488.05 1.072.074 1.34 0 .061-.025.074-.099.086l-.27.048c-.05.013-.075-.012-.1-.085a5.069 5.069 0 0 0-.197-.61.752.752 0 0 0-.616-.438 14.78 14.78 0 0 0-1.429-.073l.013.731Z" id="Fill-12" />
            <path d="M1.323 16.19c0-.414-.099-.609-.42-.609H.338c-.074 0-.098-.024-.098-.11v-.28c0-.073.024-.097.123-.097.123 0 .714.037 1.897.037 1.035 0 1.626-.037 1.774-.037.074 0 .099.024.099.085v.305c0 .073-.025.097-.099.097h-.517c-.37 0-.592.22-.604.476-.012.146-.037.877-.037 1.583v1.511c0 .61.012 1.474.037 1.864.037.56.136 1.121.431 1.511.42.56 1.084.755 1.676.755.567 0 1.256-.219 1.65-.584.469-.463.715-1.17.715-2.06v-2.193c0-.974-.098-2.046-.135-2.326-.037-.317-.234-.537-.505-.537H6.3c-.074 0-.098-.036-.098-.085v-.304c0-.074.024-.098.098-.098.123 0 .69.037 1.503.037.764 0 1.158-.037 1.257-.037.11 0 .123.037.123.098v.28c0 .073-.012.11-.074.11h-.443c-.444 0-.493.34-.518.475-.025.146-.025 1.851-.025 2.01 0 .17-.024 2.29-.073 2.778-.074.999-.37 1.754-1.035 2.339-.518.463-1.306.755-2.243.755-.591 0-1.306-.097-1.774-.292-.714-.293-1.207-.853-1.453-1.633-.173-.536-.222-1.34-.222-2.936v-2.887Z" id="Fill-14" />
            <path d="M12.398 18.25c0 2.07.098 3.776.123 4.154.025.61.173.902.616.902h.32c.1 0 .1.048.1.11v.28c0 .073 0 .097-.1.097-.123 0-.862-.037-1.33-.037-.32 0-1.158.037-1.281.037-.05 0-.074-.024-.074-.11v-.304c0-.025.024-.073.074-.073h.419c.32 0 .492-.268.554-1.011.012-.22.086-1.926.086-3.875v-1.547c0-.731-.419-1.292-.96-1.292h-.395c-.05-.012-.074-.036-.074-.085v-.329c0-.048.025-.073.074-.073.062 0 .16.012.382.025.222.012.554.012 1.096.012.21 0 .395-.012.543-.025.16 0 .27-.012.345-.012.147 0 .221.037.295.11.123.122 2.538 3.119 2.785 3.46a374.39 374.39 0 0 1 2.291 2.802h.05v-1.267c0-1.072 0-1.681-.025-2.29-.025-.464-.074-1.658-.136-1.865-.086-.292-.357-.463-.653-.463h-.394c-.074 0-.074-.048-.074-.11v-.28c0-.072 0-.097.099-.097.147 0 .542.037 1.38.037.739 0 1.034-.037 1.182-.037.099 0 .123.049.123.085v.28c0 .074-.024.122-.073.122h-.345c-.247 0-.37.195-.407.646-.062.829-.185 2.875-.185 4.118v3.216c0 .17 0 .341-.148.341a.617.617 0 0 1-.419-.194c-.098-.122-.763-.877-1.527-1.78-.863-1.047-1.824-2.192-1.971-2.387-.173-.17-2.144-2.607-2.292-2.778h-.074v1.487Z" id="Fill-16" />
            <path d="M24.471 19.81c0 .12.025 2.923.025 3.057 0 .39.197.439.493.439h.517c.05 0 .099.024.099.085v.305c0 .073-.05.097-.124.097-.148 0-.64-.037-1.798-.037-1.232 0-1.775.037-1.898.037-.074 0-.098-.024-.098-.085v-.33c0-.048.024-.072.098-.072h.493c.247 0 .518-.025.567-.354.024-.17.05-2.802.05-3.46v-.853c0-.292-.026-2.485-.038-2.643-.037-.293-.16-.415-.505-.415h-.64c-.075 0-.1-.024-.1-.085v-.317c0-.06.025-.085.075-.085.148 0 .788.037 1.996.037 1.182 0 1.577-.037 1.749-.037.074 0 .099.049.099.11v.28c0 .073-.05.097-.099.097h-.468c-.271 0-.468.098-.468.33 0 .121-.025 2.802-.025 2.948v.95Z" id="Fill-18" />
            <path d="M33.12 15.192c0-.073.024-.098.098-.098.099 0 .665.037 1.454.037 1.035 0 1.355-.037 1.454-.037.074 0 .098.025.098.085v.305c0 .06-.024.098-.098.098h-.296c-.296 0-.616.121-.9.56-.406.646-1.145 2.546-1.49 3.35-.247.536-1.725 4.094-1.848 4.35a.283.283 0 0 1-.247.158c-.148 0-.209-.134-.27-.28-.42-1.036-1.455-3.826-1.873-4.959-.32-.877-.863-2.436-.998-2.79-.111-.268-.259-.39-.53-.39h-.296c-.05 0-.074-.036-.074-.11v-.28c0-.072.025-.097.074-.097.123 0 .542.037 1.824.037 1.158 0 1.724-.037 1.823-.037.099 0 .123.037.123.098v.268c0 .085-.024.122-.098.122h-.592c-.32 0-.517.121-.517.304 0 .098 0 .244.037.414.086.439.554 1.877.8 2.583.173.463.838 2.388 1.036 3.046h.024v-.024a81.21 81.21 0 0 0 1.208-3.07c.197-.573.96-2.413.96-2.913 0-.146-.123-.34-.468-.34h-.332c-.05 0-.087-.05-.087-.11v-.28Z" id="Fill-20" />
            <path d="M40.227 20.223c.013.658.037 1.852.037 2.072 0 .633.222.877.493.95.197.048.493.097.961.097.222 0 .789-.024 1.035-.049.222-.024.69-.146 1.01-.414.222-.195.912-.999 1.146-1.291.05-.061.086-.073.136-.05l.197.123c.037.024.049.06.024.122l-.59 1.827c-.038.11-.124.183-.272.183-.062 0-.333-.012-1.096-.024-.777 0-2.046-.013-4.103-.013-.456 0-.789.013-1.047.013-.247.012-.42.024-.53.024-.074 0-.099-.024-.099-.098v-.292c0-.073.025-.097.124-.097h.418c.567 0 .617-.073.617-.524v-4.094c0-.999-.025-2.51-.05-2.68-.05-.329-.172-.426-.542-.426h-.468c-.05 0-.074-.025-.074-.086v-.317c0-.06.012-.085.074-.085.27 0 .714.049 1.725.037h.345c.542 0 3.375-.025 3.918-.025.197 0 .43-.012.492-.012s.087.025.099.073c.05.159.517 1.815.567 1.937.024.073.012.11-.037.134l-.222.098c-.037.012-.074 0-.111-.061-.05-.073-1.06-1.194-1.355-1.365-.259-.146-.592-.304-.937-.316l-1.872-.05-.025 3.522c.37 0 1.257-.025 1.405-.061.27-.049.418-.146.566-.439.074-.158.198-.463.198-.682 0-.073.049-.097.098-.097l.32.024c.05 0 .086.024.074.097-.024.195-.024 1-.024 1.316 0 .488.049 1.072.074 1.34 0 .061-.025.073-.099.086l-.27.048c-.05.013-.075-.012-.1-.085a5.09 5.09 0 0 0-.197-.61.752.752 0 0 0-.616-.438 14.778 14.778 0 0 0-1.429-.073l.012.731Z" id="Fill-22" />
            <path d="M49.418 19.468c.172.024.32.048.468.048 1.922 0 2.316-1.534 2.316-2.095 0-.56-.234-1.084-.542-1.364-.444-.39-1.01-.524-1.626-.524-.198 0-.345.012-.444.073-.098.06-.148.207-.148.353l-.024 3.509Zm-.025 1.096c0 .731.025 2.096.05 2.279.036.243.122.463.32.463h.615c.075 0 .1.036.1.085v.292c0 .086-.038.11-.136.11-.16 0-.407-.037-1.688-.037-1.208 0-1.503.037-1.626.037-.074 0-.099-.037-.099-.11v-.28c0-.061.025-.097.074-.097h.419c.27 0 .468-.073.468-.402.025-1.219.025-2.364.025-3.51v-3.203c0-.415-.173-.61-.395-.61h-.48c-.062 0-.086-.024-.086-.073v-.329c0-.06.024-.085.086-.085.086 0 .48.037 1.688.037.69 0 1.823-.037 2.193-.037.985 0 1.75.329 2.242.768.443.39.665.901.665 1.364 0 1.535-.936 2.169-2.291 2.388v.049c.345.122.567.34.739.56.148.195.912 1.34 1.01 1.487.074.121.863 1.218 1.047 1.388.235.208.58.232.875.232.074 0 .099.037.099.085v.256c0 .085-.025.122-.099.122-.098 0-.419-.037-1.207-.037-.345 0-.813.025-1.084.037-.148-.11-.382-.439-.543-.695-.221-.34-.702-1.218-.813-1.413a14.14 14.14 0 0 0-.665-1.047c-.308-.427-.591-.756-1.109-.756-.049 0-.259.012-.394.024v.658Z" id="Fill-24" />
            <path d="M57.376 21.04c.05 0 .074.024.074.097.025.39.123.853.468 1.389a1.92 1.92 0 0 0 1.626.877c.666 0 1.602-.414 1.602-1.425 0-1.121-.517-1.487-1.823-1.974-.395-.146-1.208-.487-1.8-1.023-.418-.39-.615-1-.615-1.743 0-.682.27-1.242.862-1.705.493-.414 1.035-.585 1.75-.585.813 0 1.306.195 1.552.292.123.05.197.025.259-.036l.16-.159a.225.225 0 0 1 .172-.073c.074 0 .099.073.099.195 0 .195.197 1.9.197 2.023 0 .048-.025.073-.074.085l-.197.06c-.05.013-.099 0-.123-.072-.123-.341-.32-.829-.764-1.292-.32-.34-.715-.511-1.281-.511-.986 0-1.38.78-1.38 1.23 0 .414.05.78.345 1.097.32.317 1.01.609 1.503.755.714.22 1.306.463 1.774.95.394.414.616.926.616 1.742 0 1.487-.986 2.705-2.612 2.705-1.01 0-1.602-.22-2.094-.585-.148-.097-.222-.146-.296-.146-.074 0-.123.098-.197.22-.074.121-.123.146-.222.146-.098 0-.148-.074-.148-.195.025-.146.197-2.12.222-2.266.012-.073.025-.098.074-.098l.27.025Z" id="Fill-26" />
            <path d="M67.158 19.81c0 .12.024 2.923.024 3.057 0 .39.197.439.493.439h.517c.05 0 .099.024.099.085v.305c0 .073-.05.097-.123.097-.148 0-.64-.037-1.799-.037-1.232 0-1.774.037-1.897.037-.074 0-.099-.024-.099-.085v-.33c0-.048.025-.072.099-.072h.493c.246 0 .517-.025.566-.354.025-.17.05-2.802.05-3.46v-.853c0-.292-.025-2.485-.037-2.643-.037-.293-.16-.415-.505-.415h-.641c-.074 0-.099-.024-.099-.085v-.317c0-.06.025-.085.074-.085.148 0 .789.037 1.996.037 1.183 0 1.577-.037 1.75-.037.073 0 .098.049.098.11v.28c0 .073-.05.097-.098.097h-.469c-.27 0-.468.098-.468.33 0 .121-.024 2.802-.024 2.948v.95Z" id="Fill-28" />
            <path d="M73.49 15.642h-.345c-.395 0-1.282 0-1.8.17-.393.171-.862.975-1.096 1.39-.037.06-.074.11-.135.085l-.247-.085c-.049-.025-.061-.061-.049-.122l.592-2.242c.024-.17.098-.219.147-.219.074 0 .123.049.197.122.247.243.493.304.838.317.666.024 1.183.073 2.39.073h.666c1.355 0 1.872-.05 2.44-.073.233-.013.701-.183.886-.317.099-.073.148-.122.222-.122.074 0 .099.049.123.195.025.22.271 1.73.37 2.315.012.073-.013.097-.05.11l-.246.085c-.05.012-.074-.025-.11-.098-.173-.341-.63-1.12-.974-1.364-.345-.195-1.454-.22-1.897-.22h-.345v6.494c0 .926.123 1.17.418 1.17h.715c.05 0 .074.048.074.11v.255c0 .073-.025.122-.123.122-.123 0-.518-.037-1.848-.037-1.257 0-1.774.037-1.947.037-.074 0-.098-.024-.098-.11v-.28c0-.073.037-.097.086-.097h.702c.246 0 .394-.147.407-.33.037-.316.037-4.044.037-4.288v-3.046Z" id="Fill-30" />
            <path d="M85.255 21.49c0 .463.024 1.267.037 1.401.037.39.234.415.48.415h.407c.061 0 .086.036.086.085v.28c0 .085-.025.122-.086.122-.136 0-.629-.037-1.737-.037-1.208 0-1.602.037-1.713.037-.062 0-.086-.049-.086-.11v-.28c0-.049.024-.097.086-.097h.505c.32 0 .42-.122.431-.305.013-.17.037-1.12.037-2.266v-.585c-.197-.365-2.193-3.874-2.538-4.3a.885.885 0 0 0-.616-.269h-.221c-.074 0-.099-.024-.099-.085v-.329c0-.049.025-.073.099-.073.098 0 .69.037 1.626.037 1.257 0 1.7-.037 1.823-.037.074 0 .099.024.099.085v.28c0 .074-.025.122-.099.122h-.32c-.271 0-.37.098-.345.354.025.219 1.503 2.924 1.836 3.606.419-.682 2.008-3.216 2.033-3.521.024-.22-.05-.439-.42-.439h-.32c-.074 0-.098-.036-.098-.097v-.305c0-.06.024-.085.074-.085.123 0 .64.037 1.503.037.788 0 1.06-.037 1.182-.037.074 0 .099.024.099.085v.28c0 .074-.025.122-.099.122h-.27a.982.982 0 0 0-.666.28c-.197.22-2.242 3.339-2.71 4.143v1.486Z" id="Fill-32" />
        </g>
    </g>
</svg>
