<?xml version="1.0" encoding="utf-8"?>
<!-- Generator: Adobe Illustrator 27.4.1, SVG Export Plug-In . SVG Version: 6.00 Build 0)  -->
<svg version="1.1" id="Layer_1" xmlns="http://www.w3.org/2000/svg" xmlns:xlink="http://www.w3.org/1999/xlink" x="0px" y="0px"
	 viewBox="0 0 504 154" style="enable-background:new 0 0 504 154;" xml:space="preserve">
<style type="text/css">
	.st0{fill:#FFFFFF;}
	.st1{fill:none;}
</style>
<g>
	<path class="st0" d="M130.87,36.35h-0.85c-0.97,0-3.16,0-4.43,0.43c-0.97,0.42-2.12,2.43-2.7,3.46c-0.09,0.15-0.18,0.27-0.33,0.21
		l-0.61-0.21c-0.12-0.06-0.15-0.15-0.12-0.3l1.46-5.58c0.06-0.42,0.24-0.54,0.36-0.54c0.18,0,0.3,0.12,0.49,0.3
		c0.61,0.6,1.21,0.76,2.07,0.79c1.64,0.06,2.91,0.18,5.89,0.18h1.64c3.34,0,4.61-0.12,6.01-0.18c0.58-0.03,1.73-0.46,2.19-0.79
		c0.24-0.18,0.36-0.3,0.55-0.3c0.18,0,0.24,0.12,0.3,0.48c0.06,0.55,0.67,4.31,0.91,5.77c0.03,0.18-0.03,0.24-0.12,0.27l-0.61,0.21
		c-0.12,0.03-0.18-0.06-0.27-0.24c-0.42-0.85-1.55-2.79-2.4-3.4c-0.85-0.49-3.58-0.55-4.67-0.55h-0.85v16.17
		c0,2.31,0.3,2.91,1.03,2.91h1.76c0.12,0,0.18,0.12,0.18,0.27v0.64c0,0.18-0.06,0.31-0.3,0.31c-0.3,0-1.28-0.09-4.55-0.09
		c-3.09,0-4.37,0.09-4.79,0.09c-0.18,0-0.24-0.06-0.24-0.27v-0.7c0-0.19,0.09-0.25,0.21-0.25h1.73c0.61,0,0.97-0.36,1-0.82
		c0.09-0.79,0.09-10.07,0.09-10.68V36.35z"/>
	<path class="st0" d="M149.84,37.71c0-1.03-0.24-1.52-1.03-1.52h-1.4c-0.18,0-0.24-0.06-0.24-0.27v-0.7c0-0.19,0.06-0.25,0.3-0.25
		c0.3,0,1.76,0.09,4.67,0.09c2.55,0,4.01-0.09,4.37-0.09c0.18,0,0.24,0.06,0.24,0.21v0.76c0,0.18-0.06,0.25-0.24,0.25h-1.28
		c-0.91,0-1.46,0.54-1.49,1.18c-0.03,0.37-0.09,2.19-0.09,3.94v3.76c0,1.52,0.03,3.67,0.09,4.64c0.09,1.4,0.33,2.79,1.06,3.76
		c1.03,1.4,2.67,1.88,4.13,1.88c1.4,0,3.09-0.54,4.07-1.45c1.15-1.15,1.76-2.91,1.76-5.13v-5.46c0-2.43-0.24-5.1-0.33-5.79
		c-0.09-0.79-0.58-1.33-1.24-1.33h-1.09c-0.18,0-0.24-0.09-0.24-0.21v-0.76c0-0.19,0.06-0.25,0.24-0.25c0.3,0,1.7,0.09,3.7,0.09
		c1.88,0,2.85-0.09,3.09-0.09c0.27,0,0.3,0.09,0.3,0.25v0.7c0,0.18-0.03,0.27-0.18,0.27h-1.09c-1.09,0-1.21,0.85-1.27,1.18
		c-0.06,0.37-0.06,4.61-0.06,5.01c0,0.42-0.06,5.71-0.18,6.92c-0.18,2.49-0.91,4.37-2.55,5.83c-1.28,1.15-3.22,1.88-5.52,1.88
		c-1.46,0-3.22-0.24-4.37-0.73c-1.76-0.73-2.97-2.12-3.58-4.07c-0.43-1.33-0.55-3.34-0.55-7.31V37.71z"/>
	<path class="st0" d="M191.66,50.31c0.06,0.06,0.06,0.12,0.06,0.3c-0.12,0.18-1.34,5.22-1.52,6.04c-0.79-0.03-9.53-0.09-12.62-0.09
		c-2.73,0-3.82,0.09-4.19,0.09c-0.24,0-0.24-0.06-0.24-0.27v-0.7c0-0.19,0-0.25,0.18-0.25h1.21c1.09,0,1.28-0.42,1.28-0.82
		c0-0.55,0.12-8.13,0.12-9.95v-1.7c0-1.94-0.06-5.16-0.12-5.67c-0.06-0.79-0.18-1.09-0.97-1.09h-1.28c-0.18,0-0.24-0.19-0.24-0.27
		v-0.7c0-0.19,0.06-0.25,0.24-0.25c0.3,0,1.4,0.09,4.19,0.09c3.28,0,4.55-0.09,4.79-0.09c0.24,0,0.3,0.12,0.3,0.27v0.7
		c0,0.12-0.06,0.25-0.3,0.25h-1.64c-0.91,0-1.03,0.3-1.03,1.12c0,0.43-0.12,4.98-0.12,7.1v2.61c0,0.55,0,7.1,0.12,8.41h1.7
		c1.7,0,3.88,0,5.1-0.15c1.7-0.25,3.64-3.88,4.07-5.04c0.12-0.12,0.18-0.18,0.36-0.12L191.66,50.31z"/>
	<path class="st0" d="M200.92,48.21c-0.24,0.7-1.73,5.04-1.88,5.85c-0.06,0.25-0.06,0.49-0.06,0.64c0,0.39,0.49,0.73,1.09,0.73h1.28
		c0.24,0,0.3,0.06,0.3,0.15v0.76c0,0.18-0.06,0.31-0.24,0.31c-0.43,0-1.7-0.09-3.82-0.09c-2.24,0-2.91,0.09-3.34,0.09
		c-0.18,0-0.18-0.19-0.18-0.39v-0.58c0-0.19,0.06-0.25,0.18-0.25h0.91c0.85,0,1.4-0.42,1.94-1.37c0.3-0.54,2.49-6.01,3.4-8.55
		l2.97-7.95c0.06-0.3,0.24-0.85,0.06-1.03c-0.09-0.09-0.18-0.27-0.18-0.36c0-0.12,0.06-0.24,0.3-0.3c0.97-0.25,2.64-1.16,3-1.52
		c0.18-0.18,0.3-0.3,0.46-0.3c0.18,0,0.3,0.36,0.36,0.54c0.55,1.88,2.91,8.68,3.46,10.62c0.73,2.37,2.67,8.01,3.09,8.83
		c0.55,1.03,1.34,1.39,1.94,1.39h0.97c0.18,0,0.24,0.06,0.24,0.21v0.64c0,0.18-0.06,0.37-0.3,0.37c-0.55,0-1.15-0.09-4.49-0.09
		c-2.55,0-3.58,0.09-4.25,0.09c-0.24,0-0.3-0.19-0.3-0.37v-0.6c0-0.19,0.06-0.25,0.24-0.25h0.79c0.85,0,1.09-0.3,0.91-1.12
		c-0.24-1.09-1.46-4.98-1.82-6.1H200.92z M207.65,47c-0.3-0.88-2.37-7.8-2.55-8.41c-0.12-0.36-0.18-0.54-0.3-0.54
		c-0.18,0-0.3,0.12-0.39,0.39c-0.12,0.39-2.85,7.86-3.06,8.56H207.65z"/>
	<path class="st0" d="M224.83,42.84c0,5.16,0.24,9.41,0.3,10.35c0.06,1.52,0.43,2.24,1.52,2.24h0.79c0.24,0,0.24,0.12,0.24,0.27v0.7
		c0,0.19,0,0.25-0.24,0.25c-0.3,0-2.12-0.09-3.28-0.09c-0.79,0-2.85,0.09-3.16,0.09c-0.12,0-0.18-0.06-0.18-0.27v-0.76
		c0-0.06,0.06-0.19,0.18-0.19h1.03c0.79,0,1.21-0.66,1.37-2.52c0.03-0.54,0.21-4.79,0.21-9.65v-3.85c0-1.82-1.03-3.22-2.37-3.22
		h-0.97c-0.12-0.03-0.18-0.09-0.18-0.21v-0.82c0-0.12,0.06-0.18,0.18-0.18c0.15,0,0.39,0.03,0.94,0.06c0.55,0.03,1.37,0.03,2.7,0.03
		c0.52,0,0.97-0.03,1.33-0.06c0.39,0,0.67-0.03,0.85-0.03c0.36,0,0.55,0.09,0.73,0.27c0.3,0.3,6.25,7.77,6.86,8.62
		c0.43,0.48,5.16,6.37,5.65,6.98h0.12V47.7c0-2.67,0-4.19-0.06-5.71c-0.06-1.15-0.18-4.13-0.33-4.64c-0.21-0.73-0.88-1.15-1.61-1.15
		h-0.97c-0.18,0-0.18-0.12-0.18-0.27v-0.7c0-0.19,0-0.25,0.24-0.25c0.36,0,1.33,0.09,3.4,0.09c1.82,0,2.55-0.09,2.91-0.09
		c0.24,0,0.3,0.12,0.3,0.21v0.7c0,0.18-0.06,0.31-0.18,0.31h-0.85c-0.61,0-0.91,0.48-1,1.61c-0.15,2.06-0.46,7.16-0.46,10.25v8.01
		c0,0.43,0,0.85-0.36,0.85c-0.43,0-0.79-0.24-1.03-0.48c-0.24-0.3-1.88-2.18-3.76-4.43c-2.13-2.61-4.49-5.46-4.86-5.95
		c-0.43-0.42-5.28-6.49-5.65-6.92h-0.18V42.84z"/>
	<path class="st0" d="M254.67,47.76c0.03,1.64,0.09,4.61,0.09,5.16c0,1.58,0.55,2.19,1.21,2.37c0.49,0.12,1.22,0.24,2.37,0.24
		c0.55,0,1.94-0.06,2.55-0.12c0.54-0.06,1.7-0.37,2.49-1.03c0.55-0.49,2.24-2.49,2.82-3.22c0.12-0.15,0.21-0.18,0.33-0.12l0.49,0.31
		c0.09,0.06,0.12,0.15,0.06,0.3l-1.46,4.55c-0.09,0.27-0.3,0.46-0.66,0.46c-0.15,0-0.82-0.03-2.7-0.06c-1.91,0-5.04-0.03-10.1-0.03
		c-1.12,0-1.94,0.03-2.58,0.03c-0.6,0.03-1.03,0.06-1.3,0.06c-0.18,0-0.24-0.06-0.24-0.25v-0.73c0-0.19,0.06-0.25,0.3-0.25h1.03
		c1.4,0,1.52-0.18,1.52-1.31V43.93c0-2.49-0.06-6.25-0.12-6.68c-0.12-0.82-0.42-1.06-1.33-1.06h-1.15c-0.12,0-0.18-0.06-0.18-0.21
		v-0.79c0-0.15,0.03-0.21,0.18-0.21c0.67,0,1.76,0.12,4.25,0.09h0.85c1.33,0,8.31-0.06,9.65-0.06c0.48,0,1.06-0.03,1.21-0.03
		c0.15,0,0.21,0.06,0.24,0.18c0.12,0.39,1.28,4.53,1.4,4.83c0.06,0.18,0.03,0.27-0.09,0.33l-0.54,0.24c-0.09,0.03-0.19,0-0.27-0.15
		c-0.12-0.18-2.61-2.97-3.34-3.4c-0.64-0.37-1.45-0.76-2.3-0.79l-4.61-0.12l-0.06,8.77c0.91,0,3.09-0.06,3.46-0.15
		c0.66-0.12,1.03-0.37,1.39-1.09c0.18-0.39,0.49-1.16,0.49-1.7c0-0.18,0.12-0.24,0.24-0.24l0.79,0.06c0.12,0,0.21,0.06,0.18,0.24
		c-0.06,0.48-0.06,2.49-0.06,3.28c0,1.22,0.12,2.67,0.18,3.34c0,0.15-0.06,0.18-0.24,0.21l-0.67,0.12
		c-0.12,0.03-0.18-0.03-0.24-0.21c-0.12-0.49-0.33-1.15-0.49-1.52c-0.27-0.6-0.85-1.03-1.52-1.09c-1.09-0.12-2.55-0.18-3.52-0.18
		L254.67,47.76z"/>
	<path class="st0" d="M281.01,37.71c0-1.03-0.25-1.52-1.03-1.52h-1.4c-0.18,0-0.24-0.06-0.24-0.27v-0.7c0-0.19,0.06-0.25,0.3-0.25
		c0.3,0,1.76,0.09,4.67,0.09c2.55,0,4.01-0.09,4.37-0.09c0.19,0,0.25,0.06,0.25,0.21v0.76c0,0.18-0.06,0.25-0.25,0.25h-1.27
		c-0.91,0-1.45,0.54-1.49,1.18c-0.03,0.37-0.09,2.19-0.09,3.94v3.76c0,1.52,0.03,3.67,0.09,4.64c0.09,1.4,0.33,2.79,1.06,3.76
		c1.03,1.4,2.67,1.88,4.13,1.88c1.39,0,3.09-0.54,4.07-1.45c1.15-1.15,1.76-2.91,1.76-5.13v-5.46c0-2.43-0.24-5.1-0.33-5.79
		c-0.09-0.79-0.58-1.33-1.25-1.33h-1.09c-0.18,0-0.24-0.09-0.24-0.21v-0.76c0-0.19,0.06-0.25,0.24-0.25c0.31,0,1.7,0.09,3.7,0.09
		c1.88,0,2.85-0.09,3.09-0.09c0.27,0,0.31,0.09,0.31,0.25v0.7c0,0.18-0.03,0.27-0.19,0.27h-1.09c-1.09,0-1.21,0.85-1.27,1.18
		c-0.06,0.37-0.06,4.61-0.06,5.01c0,0.42-0.06,5.71-0.18,6.92c-0.19,2.49-0.91,4.37-2.55,5.83c-1.27,1.15-3.22,1.88-5.52,1.88
		c-1.45,0-3.22-0.24-4.37-0.73c-1.76-0.73-2.97-2.12-3.58-4.07c-0.42-1.33-0.54-3.34-0.54-7.31V37.71z"/>
	<path class="st0" d="M308.29,42.84c0,5.16,0.25,9.41,0.31,10.35c0.06,1.52,0.42,2.24,1.52,2.24h0.79c0.24,0,0.24,0.12,0.24,0.27
		v0.7c0,0.19,0,0.25-0.24,0.25c-0.3,0-2.12-0.09-3.28-0.09c-0.79,0-2.85,0.09-3.16,0.09c-0.12,0-0.18-0.06-0.18-0.27v-0.76
		c0-0.06,0.06-0.19,0.18-0.19h1.03c0.79,0,1.22-0.66,1.37-2.52c0.03-0.54,0.21-4.79,0.21-9.65v-3.85c0-1.82-1.03-3.22-2.37-3.22
		h-0.97c-0.12-0.03-0.19-0.09-0.19-0.21v-0.82c0-0.12,0.06-0.18,0.19-0.18c0.15,0,0.39,0.03,0.94,0.06c0.55,0.03,1.37,0.03,2.7,0.03
		c0.52,0,0.97-0.03,1.34-0.06c0.39,0,0.66-0.03,0.85-0.03c0.36,0,0.54,0.09,0.73,0.27c0.31,0.3,6.25,7.77,6.86,8.62
		c0.43,0.48,5.16,6.37,5.65,6.98h0.12V47.7c0-2.67,0-4.19-0.06-5.71c-0.06-1.15-0.18-4.13-0.33-4.64c-0.21-0.73-0.88-1.15-1.61-1.15
		h-0.97c-0.18,0-0.18-0.12-0.18-0.27v-0.7c0-0.19,0-0.25,0.24-0.25c0.37,0,1.34,0.09,3.4,0.09c1.82,0,2.55-0.09,2.91-0.09
		c0.24,0,0.3,0.12,0.3,0.21v0.7c0,0.18-0.06,0.31-0.18,0.31h-0.85c-0.6,0-0.91,0.48-1,1.61c-0.15,2.06-0.46,7.16-0.46,10.25v8.01
		c0,0.43,0,0.85-0.37,0.85c-0.42,0-0.79-0.24-1.03-0.48c-0.24-0.3-1.88-2.18-3.76-4.43c-2.12-2.61-4.49-5.46-4.86-5.95
		c-0.42-0.42-5.28-6.49-5.65-6.92h-0.18V42.84z"/>
	<path class="st0" d="M338.04,46.73c0,0.3,0.06,7.28,0.06,7.62c0,0.97,0.49,1.09,1.21,1.09h1.28c0.12,0,0.24,0.06,0.24,0.21v0.76
		c0,0.19-0.12,0.25-0.3,0.25c-0.37,0-1.58-0.09-4.43-0.09c-3.03,0-4.37,0.09-4.67,0.09c-0.18,0-0.24-0.06-0.24-0.21v-0.82
		c0-0.12,0.06-0.19,0.24-0.19h1.21c0.61,0,1.28-0.06,1.4-0.88c0.06-0.43,0.12-6.98,0.12-8.62v-2.12c0-0.73-0.06-6.19-0.09-6.58
		c-0.09-0.73-0.39-1.03-1.24-1.03h-1.58c-0.18,0-0.24-0.06-0.24-0.21v-0.79c0-0.15,0.06-0.21,0.18-0.21c0.36,0,1.94,0.09,4.92,0.09
		c2.91,0,3.88-0.09,4.31-0.09c0.19,0,0.25,0.12,0.25,0.27v0.7c0,0.18-0.12,0.25-0.25,0.25h-1.15c-0.66,0-1.15,0.24-1.15,0.82
		c0,0.3-0.06,6.98-0.06,7.34V46.73z"/>
	<path class="st0" d="M359.34,35.23c0-0.19,0.06-0.25,0.24-0.25c0.25,0,1.64,0.09,3.58,0.09c2.55,0,3.34-0.09,3.58-0.09
		c0.18,0,0.24,0.06,0.24,0.21v0.76c0,0.15-0.06,0.25-0.24,0.25h-0.73c-0.73,0-1.52,0.3-2.22,1.39c-1,1.61-2.82,6.34-3.67,8.34
		c-0.61,1.33-4.25,10.2-4.55,10.84c-0.12,0.24-0.36,0.39-0.6,0.39c-0.37,0-0.52-0.33-0.67-0.7c-1.03-2.58-3.58-9.53-4.61-12.35
		c-0.79-2.18-2.12-6.07-2.46-6.95c-0.27-0.67-0.64-0.97-1.31-0.97h-0.73c-0.12,0-0.18-0.09-0.18-0.27v-0.7
		c0-0.19,0.06-0.25,0.18-0.25c0.3,0,1.33,0.09,4.49,0.09c2.85,0,4.25-0.09,4.49-0.09s0.3,0.09,0.3,0.25v0.66
		c0,0.21-0.06,0.31-0.24,0.31h-1.45c-0.79,0-1.28,0.3-1.28,0.76c0,0.24,0,0.6,0.09,1.03c0.21,1.09,1.37,4.67,1.97,6.43
		c0.43,1.16,2.06,5.95,2.55,7.59h0.06v-0.06c0.73-1.7,2.67-6.74,2.97-7.65c0.49-1.43,2.37-6.01,2.37-7.25c0-0.36-0.3-0.85-1.15-0.85
		h-0.82c-0.12,0-0.21-0.12-0.21-0.27V35.23z"/>
	<path class="st0" d="M376.85,47.76c0.03,1.64,0.09,4.61,0.09,5.16c0,1.58,0.55,2.19,1.22,2.37c0.48,0.12,1.21,0.24,2.37,0.24
		c0.54,0,1.94-0.06,2.55-0.12c0.54-0.06,1.7-0.37,2.49-1.03c0.55-0.49,2.24-2.49,2.82-3.22c0.12-0.15,0.21-0.18,0.33-0.12l0.49,0.31
		c0.09,0.06,0.12,0.15,0.06,0.3l-1.46,4.55c-0.09,0.27-0.3,0.46-0.66,0.46c-0.15,0-0.82-0.03-2.7-0.06c-1.91,0-5.04-0.03-10.1-0.03
		c-1.12,0-1.94,0.03-2.58,0.03c-0.6,0.03-1.03,0.06-1.3,0.06c-0.19,0-0.25-0.06-0.25-0.25v-0.73c0-0.19,0.06-0.25,0.31-0.25h1.03
		c1.39,0,1.52-0.18,1.52-1.31V43.93c0-2.49-0.06-6.25-0.12-6.68c-0.12-0.82-0.42-1.06-1.33-1.06h-1.15c-0.12,0-0.19-0.06-0.19-0.21
		v-0.79c0-0.15,0.03-0.21,0.19-0.21c0.66,0,1.76,0.12,4.25,0.09h0.85c1.33,0,8.31-0.06,9.65-0.06c0.48,0,1.06-0.03,1.21-0.03
		s0.21,0.06,0.24,0.18c0.12,0.39,1.28,4.53,1.4,4.83c0.06,0.18,0.03,0.27-0.09,0.33l-0.54,0.24c-0.09,0.03-0.19,0-0.27-0.15
		c-0.12-0.18-2.61-2.97-3.34-3.4c-0.64-0.37-1.45-0.76-2.3-0.79l-4.61-0.12l-0.06,8.77c0.91,0,3.09-0.06,3.46-0.15
		c0.66-0.12,1.03-0.37,1.39-1.09c0.18-0.39,0.49-1.16,0.49-1.7c0-0.18,0.12-0.24,0.24-0.24l0.79,0.06c0.12,0,0.21,0.06,0.18,0.24
		c-0.06,0.48-0.06,2.49-0.06,3.28c0,1.22,0.12,2.67,0.18,3.34c0,0.15-0.06,0.18-0.24,0.21l-0.67,0.12
		c-0.12,0.03-0.18-0.03-0.24-0.21c-0.12-0.49-0.33-1.15-0.49-1.52c-0.27-0.6-0.85-1.03-1.52-1.09c-1.09-0.12-2.55-0.18-3.52-0.18
		L376.85,47.76z"/>
	<path class="st0" d="M399.43,48.61c0,1.82,0.06,5.22,0.12,5.67c0.09,0.61,0.3,1.15,0.79,1.15h1.52c0.19,0,0.25,0.09,0.25,0.21v0.73
		c0,0.21-0.09,0.27-0.33,0.27c-0.39,0-1-0.09-4.16-0.09c-2.97,0-3.7,0.09-4.01,0.09c-0.18,0-0.24-0.09-0.24-0.27v-0.7
		c0-0.15,0.06-0.25,0.18-0.25h1.03c0.66,0,1.15-0.18,1.15-1c0.06-3.03,0.06-5.89,0.06-8.74v-7.98c0-1.03-0.42-1.52-0.97-1.52h-1.18
		c-0.15,0-0.21-0.06-0.21-0.19v-0.82c0-0.15,0.06-0.21,0.21-0.21c0.21,0,1.18,0.09,4.16,0.09c1.7,0,4.49-0.09,5.4-0.09
		c2.43,0,4.31,0.82,5.52,1.91c1.1,0.97,1.64,2.24,1.64,3.4c0,3.82-2.3,5.4-5.65,5.95v0.12c0.85,0.31,1.4,0.85,1.82,1.4
		c0.36,0.48,2.24,3.34,2.49,3.7c0.18,0.3,2.12,3.03,2.58,3.46c0.58,0.52,1.43,0.58,2.16,0.58c0.18,0,0.24,0.09,0.24,0.21v0.64
		c0,0.21-0.06,0.31-0.24,0.31c-0.25,0-1.04-0.09-2.98-0.09c-0.85,0-2,0.06-2.67,0.09c-0.37-0.27-0.94-1.1-1.34-1.73
		c-0.54-0.85-1.73-3.03-2-3.52c-0.3-0.55-1.15-1.94-1.64-2.61c-0.76-1.06-1.46-1.88-2.73-1.88c-0.12,0-0.64,0.03-0.97,0.06V48.61z
		 M399.49,45.88c0.42,0.06,0.79,0.12,1.15,0.12c4.73,0,5.71-3.82,5.71-5.22c0-1.4-0.58-2.7-1.33-3.4c-1.1-0.97-2.49-1.31-4.01-1.31
		c-0.48,0-0.85,0.03-1.09,0.19c-0.24,0.15-0.36,0.52-0.36,0.88L399.49,45.88z"/>
	<path class="st0" d="M419.13,49.79c0.12,0,0.18,0.06,0.18,0.24c0.06,0.97,0.31,2.12,1.16,3.46c0.91,1.46,2.49,2.19,4.01,2.19
		c1.64,0,3.94-1.03,3.94-3.55c0-2.79-1.28-3.7-4.49-4.92c-0.97-0.36-2.97-1.21-4.43-2.55c-1.03-0.97-1.52-2.49-1.52-4.34
		c0-1.7,0.67-3.09,2.12-4.25c1.21-1.03,2.55-1.45,4.31-1.45c2,0,3.22,0.48,3.82,0.73c0.3,0.12,0.48,0.06,0.64-0.09l0.39-0.39
		c0.12-0.12,0.24-0.18,0.42-0.18c0.18,0,0.24,0.18,0.24,0.48c0,0.49,0.49,4.73,0.49,5.04c0,0.12-0.06,0.18-0.18,0.21l-0.49,0.15
		c-0.12,0.03-0.24,0-0.3-0.18c-0.31-0.85-0.79-2.06-1.88-3.22c-0.79-0.85-1.76-1.28-3.16-1.28c-2.43,0-3.4,1.94-3.4,3.07
		c0,1.03,0.12,1.94,0.85,2.73c0.79,0.79,2.49,1.52,3.7,1.88c1.76,0.54,3.22,1.15,4.37,2.37c0.97,1.03,1.52,2.3,1.52,4.34
		c0,3.7-2.43,6.74-6.43,6.74c-2.49,0-3.94-0.55-5.16-1.46c-0.37-0.24-0.55-0.36-0.73-0.36c-0.18,0-0.3,0.24-0.48,0.55
		c-0.19,0.3-0.31,0.36-0.55,0.36c-0.24,0-0.36-0.18-0.36-0.48c0.06-0.37,0.48-5.28,0.54-5.65c0.03-0.18,0.06-0.25,0.18-0.25
		L419.13,49.79z"/>
	<path class="st0" d="M443.22,46.73c0,0.3,0.06,7.28,0.06,7.62c0,0.97,0.49,1.09,1.21,1.09h1.28c0.12,0,0.24,0.06,0.24,0.21v0.76
		c0,0.19-0.12,0.25-0.3,0.25c-0.37,0-1.58-0.09-4.43-0.09c-3.03,0-4.37,0.09-4.67,0.09c-0.18,0-0.24-0.06-0.24-0.21v-0.82
		c0-0.12,0.06-0.19,0.24-0.19h1.22c0.6,0,1.27-0.06,1.39-0.88c0.06-0.43,0.12-6.98,0.12-8.62v-2.12c0-0.73-0.06-6.19-0.09-6.58
		c-0.09-0.73-0.39-1.03-1.24-1.03h-1.58c-0.18,0-0.24-0.06-0.24-0.21v-0.79c0-0.15,0.06-0.21,0.18-0.21c0.36,0,1.94,0.09,4.92,0.09
		c2.91,0,3.88-0.09,4.31-0.09c0.18,0,0.24,0.12,0.24,0.27v0.7c0,0.18-0.12,0.25-0.24,0.25h-1.16c-0.66,0-1.15,0.24-1.15,0.82
		c0,0.3-0.06,6.98-0.06,7.34V46.73z"/>
	<path class="st0" d="M458.83,36.35h-0.85c-0.97,0-3.16,0-4.43,0.43c-0.97,0.42-2.13,2.43-2.7,3.46c-0.09,0.15-0.18,0.27-0.33,0.21
		l-0.6-0.21c-0.12-0.06-0.15-0.15-0.12-0.3l1.45-5.58c0.06-0.42,0.25-0.54,0.37-0.54c0.18,0,0.3,0.12,0.48,0.3
		c0.61,0.6,1.21,0.76,2.06,0.79c1.64,0.06,2.91,0.18,5.89,0.18h1.64c3.34,0,4.61-0.12,6.01-0.18c0.58-0.03,1.73-0.46,2.18-0.79
		c0.25-0.18,0.37-0.3,0.55-0.3c0.18,0,0.24,0.12,0.3,0.48c0.06,0.55,0.67,4.31,0.91,5.77c0.03,0.18-0.03,0.24-0.12,0.27l-0.6,0.21
		c-0.12,0.03-0.19-0.06-0.27-0.24c-0.43-0.85-1.55-2.79-2.4-3.4c-0.85-0.49-3.58-0.55-4.67-0.55h-0.85v16.17
		c0,2.31,0.3,2.91,1.03,2.91h1.76c0.12,0,0.18,0.12,0.18,0.27v0.64c0,0.18-0.06,0.31-0.3,0.31c-0.3,0-1.28-0.09-4.55-0.09
		c-3.09,0-4.37,0.09-4.8,0.09c-0.18,0-0.24-0.06-0.24-0.27v-0.7c0-0.19,0.09-0.25,0.21-0.25h1.73c0.61,0,0.97-0.36,1-0.82
		c0.09-0.79,0.09-10.07,0.09-10.68V36.35z"/>
	<path class="st0" d="M487.78,50.91c0,1.15,0.06,3.16,0.09,3.49c0.09,0.97,0.58,1.03,1.18,1.03h1c0.15,0,0.21,0.09,0.21,0.21v0.7
		c0,0.21-0.06,0.31-0.21,0.31c-0.33,0-1.55-0.09-4.28-0.09c-2.98,0-3.95,0.09-4.22,0.09c-0.15,0-0.21-0.12-0.21-0.27v-0.7
		c0-0.12,0.06-0.25,0.21-0.25h1.24c0.79,0,1.04-0.3,1.06-0.76c0.03-0.42,0.09-2.79,0.09-5.65v-1.45c-0.49-0.91-5.4-9.65-6.25-10.71
		c-0.36-0.42-1.03-0.66-1.52-0.66h-0.55c-0.18,0-0.24-0.06-0.24-0.21v-0.82c0-0.12,0.06-0.18,0.24-0.18c0.24,0,1.7,0.09,4.01,0.09
		c3.09,0,4.19-0.09,4.49-0.09c0.18,0,0.24,0.06,0.24,0.21v0.7c0,0.18-0.06,0.31-0.24,0.31h-0.79c-0.67,0-0.91,0.24-0.85,0.88
		c0.06,0.55,3.7,7.28,4.52,8.98c1.03-1.7,4.95-8.01,5.01-8.77c0.06-0.55-0.12-1.09-1.03-1.09h-0.79c-0.18,0-0.24-0.09-0.24-0.25
		v-0.76c0-0.15,0.06-0.21,0.18-0.21c0.3,0,1.58,0.09,3.7,0.09c1.94,0,2.61-0.09,2.91-0.09c0.18,0,0.24,0.06,0.24,0.21v0.7
		c0,0.18-0.06,0.31-0.24,0.31h-0.67c-0.42,0-1.15,0.18-1.64,0.7c-0.48,0.54-5.52,8.31-6.67,10.32V50.91z"/>
</g>
<path class="st0" d="M104.6,1.63C104.48,1.7,92.05,9,79.66,8.08C65.38,7.04,54.24,1.39,54.13,1.33L53.4,0.96l-0.73,0.37
	c-0.11,0.06-11.28,5.7-25.56,6.75C14.73,9,2.29,1.7,2.16,1.63l-2.42-1.43l0.03,89.15c0,18.97,1.25,25.26,12.77,38.79
	c11.28,13.25,39.11,23.68,40.29,24.12l0.55,0.21l0.56-0.21c1.18-0.44,28.99-10.86,40.28-24.12c11.5-13.52,12.75-19.81,12.75-38.78
	l0.04-89.15L104.6,1.63z M59.51,51.67l-0.39,0l-0.07,48.74c0,3.72,0.61,7.17,4.99,7.17h6.72v11.05H53.41H35.89v-11.05h6.73
	c4.39,0,4.99-3.45,4.99-7.17l-0.07-48.34l0-0.4l-0.39,0c-0.1,0-10.74-0.07-20.94,1.4l-0.17,0.02l-8.33,12.07l-4.99-2.89l4.94-17.72
	c1.72-0.41,13.55-3.04,35.69-3.04c22.13,0,33.97,2.63,35.7,3.04l4.93,17.72l-5,2.89l-8.22-11.93l-0.1-0.14l-0.17-0.02
	C70.26,51.6,59.61,51.67,59.51,51.67z M64.77,25.24c3.93,2.01,20.59,4.72,20.59,4.72l0.42,2.07c-2.87,1.33-3.99,6.12-4.4,10.37
	c-2.58-0.35-5.8-0.72-9.63-1.01c-0.36-9.19-8.13-9.78-8.13-9.78L64.77,25.24z M21.29,29.97c0,0,16.66-2.72,20.59-4.72l1.15,6.38
	c0,0-7.77,0.59-8.13,9.78c-3.83,0.3-7.04,0.66-9.62,1.01c-0.41-4.26-1.53-9.05-4.4-10.37L21.29,29.97z M25.45,74.46V55.34l1.04-1.5
	c2.86-0.41,5.75-0.69,8.42-0.89c0,8.03-0.01,17.56-0.01,17.56s-0.1,4.8,1.07,7.85c1.32,3.43,3.32,5.32,10.81,5.93l0.02,12.51
	c-4.99-0.36-11.49-1.79-16.64-6.94C28.02,87.57,25.45,82.69,25.45,74.46z M76.48,89.86c-5.14,5.15-11.65,6.58-16.64,6.94l0.02-12.51
	c7.49-0.61,9.49-2.5,10.81-5.93c1.18-3.05,1.08-7.85,1.08-7.85s-0.01-9.53-0.01-17.56c2.68,0.2,5.57,0.49,8.43,0.89l1.04,1.51v19.12
	C81.21,82.69,78.63,87.57,76.48,89.86z"/>
<g>
	<path class="st0" d="M131.64,85.53c-1.92-1.16-3.97-4.08-3.97-8.02c0-1.65,0.43-4.21,2.51-6.72c2.38-2.89,5.05-3.43,7.32-3.43
		c1.7,0,3.91,0.35,6.05,2.13c1.97,1.7,3.7,4.35,3.7,8.07c0,1.97-0.62,4.02-2.02,5.91c-1.65,2.19-4.05,3.81-7.77,3.81
		C136.12,87.29,133.77,86.85,131.64,85.53z M144.6,77.79c0-5.91-4.21-9.39-7.21-9.39c-0.4,0-2.24-0.32-4.26,1.59
		c-1.81,1.73-2.7,4.45-2.7,6.67c0,7.1,4.94,9.61,7.23,9.61C143.6,86.26,144.6,80.19,144.6,77.79z"/>
	<path class="st0" d="M151.11,76.89c-0.13,0-0.22-0.11-0.19-0.3l0.11-0.81c0.03-0.16,0.11-0.19,0.32-0.19h1.57v-0.49
		c0-2.13,0.76-3.89,1.81-5.07c1.43-1.57,2.92-2.13,4.37-2.13c1.35,0,2.73,0.51,3.46,1.59c1.29-1.57,3.4-2.13,4.78-2.13
		c1.48,0,2.7,0.86,2.7,1.83c0.03,0.89-0.67,1.32-1.27,1.32c-0.62,0-1.08-0.32-1.65-1.05c-0.35-0.49-0.73-0.81-1.38-0.81
		c-0.73,0-1.49,0.3-2.05,0.95c-1.27,1.38-1.32,3.59-1.32,5.48v0.51h3.91c1.03,0,2.02-0.19,2.97-0.41c0.24-0.05,0.38-0.11,0.54-0.11
		c0.19,0,0.19,0.13,0.16,0.32c-0.08,0.46-0.08,2.16-0.08,4.59v2.97c0,1.05,0,2.02,0.03,2.32c0,0.49,0.11,0.7,0.51,0.7h1.16
		c0.19,0,0.24,0.08,0.24,0.24v0.46c0,0.19-0.05,0.27-0.21,0.27c-0.22,0-0.89-0.08-2.59-0.08c-1.59,0-2.38,0.08-2.65,0.08
		c-0.13,0-0.22-0.05-0.22-0.22v-0.54c0-0.16,0.08-0.22,0.27-0.22h1.08c0.27,0,0.4-0.14,0.43-0.62v-6.29c0-1.75-0.35-2.19-2.27-2.19
		h-3.29v2.43c0,3.19,0,5.67,0.05,5.97c0,0.38,0.05,0.7,0.49,0.7h1.21c0.22,0,0.27,0.05,0.27,0.22v0.43c0,0.22-0.05,0.32-0.16,0.32
		c-0.16,0-0.97-0.08-2.92-0.08c-0.89,0-2.27,0.08-2.48,0.08c-0.16,0-0.22-0.05-0.22-0.19v-0.59c0-0.13,0.05-0.19,0.27-0.19h0.89
		c0.51,0,0.62-0.32,0.65-0.95v-8.15h-5.56v2.43c0,3.19,0,5.67,0.03,5.97c0.05,0.46,0.13,0.7,0.7,0.7h0.73c0.24,0,0.3,0.05,0.3,0.22
		v0.43c0,0.22-0.05,0.32-0.19,0.32c-0.16,0-1.16-0.08-2.43-0.08c-1.48,0-2.86,0.08-3.08,0.08c-0.16,0-0.21-0.05-0.21-0.19v-0.59
		c0-0.13,0.05-0.19,0.27-0.19h1.29c0.51,0,0.62-0.32,0.65-0.95v-8.15H151.11z M154.86,75.6h5.56v-0.49c0-2.11,0.49-3.56,1.19-4.45
		l-0.03-0.05c-0.94,0.05-1.78-0.4-2.16-0.94c-0.27-0.35-0.7-0.49-1.4-0.49c-0.81,0-1.59,0.19-2.21,0.95c-1,1.27-0.95,3.64-0.95,4.7
		V75.6z"/>
	<path class="st0" d="M176.76,80.35c0,1.46,0.65,3.1,1.38,4.1c0.89,1.16,2.02,1.38,2.94,1.38c1.35,0,2.05-0.3,2.97-1.16
		c0.05-0.05,0.13-0.08,0.22,0l0.27,0.27c0.11,0.11,0.13,0.19,0,0.35c-0.78,0.89-2.51,1.92-4.35,1.92c-1.43,0-2.94-0.32-4.18-1.89
		c-1-1.32-1.21-2.46-1.21-3.67c0-3.16,2.21-6.34,5.78-6.34c2.81,0,3.67,1.62,3.67,2.19c-0.03,0.62-0.43,0.94-1,0.94
		c-0.62,0-1.08-0.35-1.48-1.08c-0.59-1.11-1.16-1.19-1.81-1.19C178.41,76.17,176.76,77.57,176.76,80.35z"/>
	<path class="st0" d="M189.48,79.7c-0.05,0.24-0.08,0.67-0.08,1.3c0,2.65,1.67,4.64,3.83,4.64c1.65,0,2.81-0.94,3.27-1.83
		c0.05-0.11,0.16-0.16,0.24-0.13l0.35,0.19c0.08,0.03,0.13,0.11,0,0.41c-0.49,1.08-1.89,2.94-4.29,2.94c-1.54,0-3.24-0.46-4.24-1.92
		c-0.95-1.38-1.19-2.38-1.19-4.26c0-1.05,0.27-2.86,1.7-4.29c1.16-1.19,2.51-1.43,3.86-1.43c3.1,0,3.97,2.92,3.97,3.97
		c0,0.38-0.32,0.43-0.76,0.43H189.48z M193.77,78.89c0.51,0,0.73-0.13,0.73-0.38c0-0.62-0.32-2.4-2.08-2.4
		c-1.19,0-2.32,0.78-2.83,2.78H193.77z"/>
	<path class="st0" d="M209.11,83.67c0-3.4,2.56-8.02,6.15-8.02c1.81,0,2.89,1.32,2.89,3.16c0,2.97-2.35,8.34-6.26,8.34
		C210.4,87.15,209.11,85.72,209.11,83.67z M217.07,78.41c0.03-0.84-0.46-1.51-1.35-1.51c-1.13,0-2.56,1.03-3.91,3.21
		c-0.92,1.46-1.57,3.1-1.57,4.37c0,0.86,0.59,1.38,1.24,1.38C214.29,85.86,217.07,80.19,217.07,78.41z"/>
	<path class="st0" d="M221.74,77.38c-0.13,0-0.19-0.08-0.13-0.27l0.11-0.46c0.05-0.19,0.11-0.27,0.32-0.27h2.35
		c0.81-2.32,1.73-4.56,3.16-6.16c0.75-0.86,2.24-1.83,3.99-1.83c1.57,0,2.43,0.94,2.43,1.59c0,0.84-0.54,1.24-1.08,1.24
		c-0.86,0-1.11-0.49-1.19-1.08c-0.03-0.27-0.3-0.78-1.11-0.78c-2.51,0-3.48,4-4.37,7.02h2.62c0.16,0,0.22,0.08,0.16,0.32l-0.13,0.49
		c-0.03,0.16-0.08,0.19-0.3,0.19h-2.56c-0.7,2.19-1.94,6.86-3.29,10.31c-1.65,4.21-3.56,7.21-6.45,7.21c-1.08,0-1.94-0.73-1.94-1.59
		c0-0.62,0.46-1.16,1.16-1.16c0.78,0,1.19,0.76,1.27,1.21c0.05,0.27,0.24,0.46,0.46,0.46c1.3,0,2.75-2.27,4.21-7.26l2.73-9.18
		H221.74z"/>
	<path class="st0" d="M246.99,86.72c-1.84-0.73-2.78-1.92-3.21-3.62c-0.32-1.21-0.43-3.02-0.43-6.56v-6.42
		c0-0.95-0.19-1.38-1.03-1.38h-1.27c-0.16,0-0.19-0.05-0.19-0.24v-0.59c0-0.16,0.03-0.22,0.24-0.22c0.27,0,1.59,0.08,3.7,0.08
		s3.4-0.08,3.7-0.08c0.22,0,0.24,0.05,0.24,0.16v0.7c0,0.13-0.03,0.19-0.21,0.19h-1.35c-0.78,0-1.24,0.51-1.3,1.11
		c-0.03,0.24-0.05,2.13-0.05,3.51v1.78c0,1.43,0.11,4.86,0.13,5.72c0.03,1.24,0.24,2.51,0.86,3.43c1,1.46,2.73,1.94,4.29,1.94
		c1.54,0,3.1-0.51,4.05-1.48c1.05-1.13,1.4-2.75,1.4-4.75v-5.78c0-2.05-0.05-3.62-0.13-4.29c-0.08-0.7-0.51-1.19-1.21-1.19h-1.19
		c-0.16,0-0.19-0.08-0.19-0.22v-0.65c0-0.13,0.03-0.19,0.19-0.19c0.27,0,1.51,0.08,3.32,0.08c1.86,0,2.73-0.08,2.97-0.08
		c0.24,0,0.27,0.11,0.27,0.19v0.59c0,0.16-0.03,0.27-0.16,0.27h-1.11c-1,0-1.08,0.76-1.16,1.08c-0.05,0.27-0.05,4.1-0.05,4.48
		s-0.05,5.1-0.13,6.15c-0.16,2.21-0.76,3.91-2.27,5.21c-1.08,1-2.73,1.62-5.07,1.62C249.23,87.29,247.88,87.1,246.99,86.72z"/>
	<path class="st0" d="M274.36,85.42c0,0.43,0.24,0.57,0.59,0.57h0.86c0.24,0,0.3,0.08,0.3,0.24v0.43c0,0.19-0.05,0.3-0.22,0.3
		c-0.19,0-1.03-0.08-2.56-0.08c-1.38,0-2.24,0.08-2.43,0.08c-0.16,0-0.22-0.08-0.22-0.3v-0.43c0-0.19,0.08-0.24,0.35-0.24h0.78
		c0.3,0,0.51-0.14,0.54-0.62c0.03-0.7,0.05-1.57,0.05-2.27v-3.56c0-1.08,0-1.86-0.78-2.43c-0.65-0.49-1.3-0.49-1.97-0.49
		c-0.43,0-1.38,0.19-2.19,1.05c-0.54,0.59-0.62,1.32-0.62,1.84v5.59c0,0.73,0.08,0.89,0.65,0.89h0.68c0.21,0,0.27,0.08,0.27,0.27
		v0.46c0,0.16-0.05,0.24-0.19,0.24c-0.19,0-0.92-0.08-2.35-0.08c-1.38,0-2.24,0.08-2.4,0.08c-0.13,0-0.19-0.08-0.19-0.24v-0.49
		c0-0.16,0.05-0.24,0.27-0.24h0.78c0.35,0,0.54-0.08,0.54-0.54v-6.32c0-0.81-0.43-1.27-1.11-1.59l-0.22-0.11
		c-0.19-0.08-0.21-0.16-0.21-0.24v-0.13c0-0.14,0.11-0.22,0.24-0.27l2.32-1.3c0.22-0.11,0.38-0.19,0.49-0.19
		c0.14,0,0.19,0.11,0.22,0.32l0.19,1.65h0.05c0.78-0.97,2.35-1.97,3.7-1.97c0.81,0,1.65,0.16,2.29,0.59
		c0.81,0.54,1.48,1.89,1.48,2.56V85.42z"/>
	<path class="st0" d="M287.92,70.44c0-1.03-0.19-1.35-1.7-1.59c-0.16-0.03-0.19-0.08-0.19-0.19V68.2c0-0.11,0.05-0.16,0.22-0.19
		c1.05-0.22,2.46-0.46,2.97-0.57c0.24-0.03,0.43-0.08,0.62-0.08c0.13,0,0.16,0.19,0.13,0.49c-0.08,1.35-0.11,5.26-0.11,8.69v5.97
		c0,1,0.05,2.19,0.27,2.46c0.24,0.27,0.81,0.43,1.19,0.46c0.38,0.03,0.49,0.05,0.54,0.19l0.05,0.22c0.03,0.16-0.03,0.24-0.19,0.3
		l-3.05,1.03c-0.16,0.05-0.3-0.03-0.35-0.22l-0.35-1.19c-0.86,0.86-2.59,1.46-3.97,1.46c-0.89,0-1.92,0.05-3.18-1.24
		c-1.38-1.35-1.7-2.56-1.7-4.37c0-1.67,0.62-3.32,1.89-4.59c1.05-1.13,2.51-1.7,4.02-1.7c1.11,0,2.08,0.16,2.89,0.41V70.44z
		 M287.92,79c0-0.38,0-0.89-0.24-1.32c-0.38-0.73-1.24-1.46-2.83-1.46c-0.84,0-1.75,0.24-2.46,0.97c-1.05,1.13-1.24,2.56-1.24,3.59
		c0,3.05,2.11,5.26,3.67,5.26c1.51,0,2.67-0.78,2.94-1.48c0.14-0.41,0.16-0.62,0.16-0.92V79z"/>
	<path class="st0" d="M296.77,79.7c-0.05,0.24-0.08,0.67-0.08,1.3c0,2.65,1.67,4.64,3.83,4.64c1.65,0,2.81-0.94,3.27-1.83
		c0.05-0.11,0.16-0.16,0.24-0.13l0.35,0.19c0.08,0.03,0.13,0.11,0,0.41c-0.49,1.08-1.89,2.94-4.29,2.94c-1.54,0-3.24-0.46-4.24-1.92
		c-0.95-1.38-1.19-2.38-1.19-4.26c0-1.05,0.27-2.86,1.7-4.29c1.16-1.19,2.51-1.43,3.86-1.43c3.1,0,3.97,2.92,3.97,3.97
		c0,0.38-0.32,0.43-0.76,0.43H296.77z M301.07,78.89c0.51,0,0.73-0.13,0.73-0.38c0-0.62-0.32-2.4-2.08-2.4
		c-1.19,0-2.32,0.78-2.83,2.78H301.07z"/>
	<path class="st0" d="M309.27,79.7c0-1.38-0.22-1.65-0.97-2.05l-0.51-0.27c-0.16-0.05-0.22-0.08-0.22-0.19v-0.16
		c0-0.11,0.05-0.16,0.22-0.24l2.67-1.38c0.16-0.08,0.27-0.11,0.38-0.11c0.16,0,0.19,0.16,0.19,0.32l0.13,1.92h0.11
		c0.81-1.24,2.08-2.35,3.24-2.35c0.92,0,1.38,0.57,1.38,1.19c0,0.78-0.65,1.32-1.13,1.32c-0.3,0-0.57-0.11-0.78-0.22
		c-0.22-0.13-0.54-0.22-0.89-0.22c-0.43,0-1.13,0.27-1.59,1.13c-0.16,0.3-0.27,0.78-0.27,0.86v5.61c0,0.84,0.19,1.11,0.76,1.11h1.27
		c0.16,0,0.19,0.08,0.19,0.24v0.49c0,0.16-0.03,0.24-0.14,0.24c-0.16,0-1.4-0.08-2.86-0.08c-1.67,0-2.81,0.08-2.97,0.08
		c-0.11,0-0.16-0.05-0.16-0.27v-0.46c0-0.19,0.05-0.24,0.3-0.24h1.05c0.41,0,0.59-0.16,0.59-0.51c0.03-0.89,0.03-1.83,0.03-3.24
		V79.7z"/>
	<path class="st0" d="M319.1,93.36c-0.97-0.59-1.38-1.29-1.38-2.19c0-1.51,1.54-2.67,2.83-3.24v-0.11
		c-1.13-0.24-1.81-1.08-1.81-1.89c0-1.29,1.48-2.21,2.43-2.56v-0.05c-1.05-0.46-2.51-1.7-2.51-4.1c0-1.75,1.56-3.91,4.62-3.91
		c2.05,0,3.13,1.24,3.4,1.57c0.73-0.51,1.65-1.05,2.54-1.05c0.89,0,1.32,0.59,1.27,1.13c0,0.51-0.43,1-1.05,1
		c-0.46,0-0.73-0.22-0.95-0.41c-0.16-0.11-0.35-0.24-0.57-0.24c-0.19,0-0.51,0-0.86,0.16c0.22,0.54,0.4,1.13,0.4,2.05
		c0,1.05-0.3,2.08-1,2.92c-0.7,0.78-2.24,1.35-3.13,1.35c-0.59,0-0.97-0.03-1.38-0.13c-0.54,0.22-1.43,0.76-1.43,1.51
		c0,1.11,1.35,1.03,3.16,0.92c2.21-0.11,3.56,0.13,4.64,0.97c1.16,0.86,1.3,1.94,1.32,2.59c0,1.27-0.46,2.32-1.81,3.32
		c-0.7,0.51-2.32,1.27-4.62,1.27C321.94,94.22,320.4,94.09,319.1,93.36z M328.01,90.58c0-1.59-1.21-2.81-3.91-2.62l-2.59,0.19
		c-0.84,0.22-2.16,1.13-2.16,2.59c0,0.67,0.51,1.49,1.05,1.86c0.89,0.62,1.86,0.75,3.78,0.75
		C325.18,93.36,328.14,92.66,328.01,90.58z M325.5,79.08c0-1.19-0.24-1.89-0.73-2.43c-0.35-0.35-0.89-0.59-1.29-0.59
		c-0.62,0-1.27,0.11-1.92,0.76c-0.86,0.92-0.97,2.16-0.97,3.18c0,0.92,0.3,1.75,0.86,2.35c0.49,0.46,0.97,0.67,1.62,0.67
		C324.91,83.02,325.5,80.78,325.5,79.08z"/>
	<path class="st0" d="M334.55,79.7c0-1.38-0.22-1.65-0.97-2.05l-0.51-0.27c-0.16-0.05-0.22-0.08-0.22-0.19v-0.16
		c0-0.11,0.05-0.16,0.22-0.24l2.67-1.38c0.16-0.08,0.27-0.11,0.38-0.11c0.16,0,0.19,0.16,0.19,0.32l0.13,1.92h0.11
		c0.81-1.24,2.08-2.35,3.24-2.35c0.92,0,1.38,0.57,1.38,1.19c0,0.78-0.65,1.32-1.13,1.32c-0.3,0-0.57-0.11-0.78-0.22
		c-0.22-0.13-0.54-0.22-0.89-0.22c-0.43,0-1.13,0.27-1.59,1.13c-0.16,0.3-0.27,0.78-0.27,0.86v5.61c0,0.84,0.19,1.11,0.76,1.11h1.27
		c0.16,0,0.19,0.08,0.19,0.24v0.49c0,0.16-0.03,0.24-0.14,0.24c-0.16,0-1.4-0.08-2.86-0.08c-1.67,0-2.81,0.08-2.97,0.08
		c-0.11,0-0.16-0.05-0.16-0.27v-0.46c0-0.19,0.05-0.24,0.3-0.24h1.05c0.41,0,0.59-0.16,0.59-0.51c0.03-0.89,0.03-1.83,0.03-3.24
		V79.7z"/>
	<path class="st0" d="M352.5,85.69c0.43,0,0.81-0.22,0.94-0.41c0.11-0.13,0.16-0.19,0.27-0.11l0.27,0.22
		c0.08,0.08,0.13,0.22-0.03,0.49c-0.22,0.41-0.73,1.32-2.11,1.32c-0.97,0-1.67-0.7-1.92-1.81h-0.05c-0.57,0.67-1.46,1.24-2.67,1.65
		c-0.51,0.16-1,0.16-1.59,0.16c-0.65,0-1.62-0.54-1.62-2.24c0-1.24,0.57-2.32,2.7-3.27c1.21-0.54,2.62-1.19,3.05-1.57v-1.73
		c-0.05-0.46-0.08-1.16-0.38-1.51c-0.3-0.35-0.84-0.59-1.62-0.59c-0.54,0-1.38,0.22-1.75,0.57s-0.13,0.76-0.13,1.24
		c0,0.94-0.32,1.54-1.43,1.54c-0.43,0-0.65-0.24-0.65-0.86c0-0.86,0.76-1.89,1.86-2.54c1.13-0.67,2.08-0.94,3.29-0.94
		c1.27,0,1.78,0.38,2.16,0.73c0.57,0.57,0.59,1.19,0.59,1.92v5.72C351.69,85.21,352.01,85.69,352.5,85.69z M349.72,80.94
		c-0.97,0.73-3.62,1.27-3.62,3.51c0,1,0.59,1.48,1.4,1.48c0.78,0,2.21-0.94,2.21-1.67V80.94z"/>
	<path class="st0" d="M365.43,70.44c0-1.03-0.19-1.35-1.7-1.59c-0.16-0.03-0.19-0.08-0.19-0.19V68.2c0-0.11,0.05-0.16,0.22-0.19
		c1.05-0.22,2.46-0.46,2.97-0.57c0.24-0.03,0.43-0.08,0.62-0.08c0.13,0,0.16,0.19,0.13,0.49c-0.08,1.35-0.11,5.26-0.11,8.69v5.97
		c0,1,0.05,2.19,0.27,2.46c0.24,0.27,0.81,0.43,1.19,0.46c0.38,0.03,0.49,0.05,0.54,0.19l0.05,0.22c0.03,0.16-0.03,0.24-0.19,0.3
		l-3.05,1.03c-0.16,0.05-0.3-0.03-0.35-0.22l-0.35-1.19c-0.86,0.86-2.59,1.46-3.97,1.46c-0.89,0-1.92,0.05-3.18-1.24
		c-1.38-1.35-1.7-2.56-1.7-4.37c0-1.67,0.62-3.32,1.89-4.59c1.05-1.13,2.51-1.7,4.02-1.7c1.11,0,2.08,0.16,2.89,0.41V70.44z
		 M365.43,79c0-0.38,0-0.89-0.24-1.32c-0.38-0.73-1.24-1.46-2.83-1.46c-0.84,0-1.75,0.24-2.46,0.97c-1.05,1.13-1.24,2.56-1.24,3.59
		c0,3.05,2.1,5.26,3.67,5.26c1.51,0,2.67-0.78,2.94-1.48c0.14-0.41,0.16-0.62,0.16-0.92V79z"/>
	<path class="st0" d="M382.44,81.4c0,1.29,0,2.62,0.05,3.18c0.08,0.84,0.38,0.95,0.7,0.95c0.16,0,0.57,0,0.89-0.08
		c0.22-0.05,0.3,0,0.32,0.11l0.08,0.35c0.03,0.16-0.03,0.22-0.14,0.24l-2.83,0.95c-0.16,0.05-0.32,0.11-0.54,0.11
		c-0.11,0-0.22-0.05-0.24-0.32l-0.22-1.57h-0.05c-0.76,1.05-2.32,1.89-3.67,1.89c-0.75,0-1.65-0.08-2.54-1.24
		c-1.11-1.43-1.05-2.32-1.05-5.29v-3.16c-0.03-0.75-0.41-0.94-1.03-1.03c-0.46-0.03-0.59-0.05-0.59-0.19v-0.49
		c0-0.16,0.05-0.22,0.3-0.22h2.4c0.16,0,0.27-0.03,0.38-0.05c0.11,0,0.22-0.03,0.3-0.03c0.19,0,0.32,0.13,0.3,0.32
		c-0.03,0.24-0.11,1.51-0.11,3.1v1.94c0,1.08-0.27,2.81,0.59,4.05c0.67,0.97,1.43,1.03,2.16,1.03c0.73,0,1.81-0.7,2.32-1.35
		c0.11-0.13,0.27-0.49,0.27-0.73v-6.45c-0.05-0.76-0.49-0.89-1.16-0.95c-0.46,0-0.59-0.05-0.59-0.19v-0.46
		c0-0.22,0.05-0.24,0.32-0.24h2.51c0.19,0,0.32-0.03,0.46-0.05c0.13,0,0.24-0.03,0.32-0.03c0.16,0,0.27,0.13,0.24,0.27
		c-0.03,0.24-0.16,0.95-0.16,3.59V81.4z"/>
	<path class="st0" d="M396.21,85.69c0.43,0,0.81-0.22,0.94-0.41c0.11-0.13,0.16-0.19,0.27-0.11l0.27,0.22
		c0.08,0.08,0.14,0.22-0.03,0.49c-0.22,0.41-0.73,1.32-2.11,1.32c-0.97,0-1.67-0.7-1.92-1.81h-0.05c-0.57,0.67-1.46,1.24-2.67,1.65
		c-0.51,0.16-1,0.16-1.59,0.16c-0.65,0-1.62-0.54-1.62-2.24c0-1.24,0.57-2.32,2.7-3.27c1.21-0.54,2.62-1.19,3.05-1.57v-1.73
		c-0.05-0.46-0.08-1.16-0.38-1.51c-0.3-0.35-0.84-0.59-1.62-0.59c-0.54,0-1.38,0.22-1.75,0.57c-0.38,0.35-0.13,0.76-0.13,1.24
		c0,0.94-0.32,1.54-1.43,1.54c-0.43,0-0.65-0.24-0.65-0.86c0-0.86,0.76-1.89,1.86-2.54c1.13-0.67,2.08-0.94,3.29-0.94
		c1.27,0,1.78,0.38,2.16,0.73c0.57,0.57,0.59,1.19,0.59,1.92v5.72C395.4,85.21,395.73,85.69,396.21,85.69z M393.43,80.94
		c-0.97,0.73-3.62,1.27-3.62,3.51c0,1,0.59,1.48,1.4,1.48c0.78,0,2.21-0.94,2.21-1.67V80.94z"/>
	<path class="st0" d="M403.91,83.51c0,2.02,0.92,2.38,1.4,2.38c0.62,0,1.4-0.11,1.78-0.35c0.13-0.08,0.24-0.05,0.32,0.05l0.13,0.24
		c0.08,0.11,0.03,0.22-0.05,0.3c-0.27,0.27-1.38,1.08-3,1.08c-1.32,0-2.62-1.27-2.62-2.29c0-1.11,0.08-3.48,0.08-3.86v-0.59
		c0-0.49,0.03-2.32,0.05-3.46h-1.65c-0.24,0-0.41-0.11-0.41-0.32c0-0.22,0.16-0.3,0.49-0.49c0.65-0.38,2.73-2.46,3.08-3.37
		c0.08-0.22,0.22-0.27,0.38-0.27c0.22,0,0.27,0.19,0.27,0.4l-0.13,2.65h3.75c0.16,0,0.24,0.13,0.19,0.24l-0.27,0.94
		c-0.03,0.13-0.08,0.22-0.24,0.22h-3.48c-0.05,1.24-0.08,2.56-0.08,3.81V83.51z"/>
	<path class="st0" d="M412.55,79.7c-0.05,0.24-0.08,0.67-0.08,1.3c0,2.65,1.67,4.64,3.83,4.64c1.65,0,2.81-0.94,3.27-1.83
		c0.05-0.11,0.16-0.16,0.24-0.13l0.35,0.19c0.08,0.03,0.13,0.11,0,0.41c-0.49,1.08-1.89,2.94-4.29,2.94c-1.54,0-3.24-0.46-4.24-1.92
		c-0.95-1.38-1.19-2.38-1.19-4.26c0-1.05,0.27-2.86,1.7-4.29c1.16-1.19,2.51-1.43,3.86-1.43c3.1,0,3.97,2.92,3.97,3.97
		c0,0.38-0.32,0.43-0.76,0.43H412.55z M416.84,78.89c0.51,0,0.73-0.13,0.73-0.38c0-0.62-0.32-2.4-2.08-2.4
		c-1.19,0-2.32,0.78-2.83,2.78H416.84z"/>
	<path class="st0" d="M132.29,111.38c-0.27,0.67-1.75,4.78-1.89,5.34c-0.03,0.19-0.08,0.46-0.08,0.59c0,0.38,0.32,0.59,0.92,0.59
		h1.27c0.19,0,0.27,0.05,0.27,0.19v0.62c0,0.19-0.08,0.24-0.22,0.24c-0.38,0-1.48-0.08-3.08-0.08c-1.97,0-2.56,0.08-2.94,0.08
		c-0.14,0-0.19-0.05-0.19-0.22v-0.65c0-0.13,0.11-0.19,0.21-0.19h0.95c0.81,0,1.19-0.38,1.57-1.24c0.19-0.43,2.16-5.43,2.94-7.64
		c0.19-0.54,2.38-6.34,2.62-7.07c0.08-0.27,0.22-0.62,0.03-0.92c-0.08-0.11-0.19-0.24-0.19-0.35c0-0.08,0.05-0.19,0.24-0.24
		c0.76-0.16,1.94-0.97,2.24-1.35c0.13-0.13,0.22-0.24,0.35-0.24c0.16,0,0.21,0.16,0.3,0.46c0.51,1.7,2.62,7.75,3.13,9.47
		c0.62,2.11,2.38,7.13,2.75,7.91c0.46,0.89,1.16,1.21,1.83,1.21h0.89c0.16,0,0.22,0.08,0.22,0.19v0.67c0,0.13-0.08,0.19-0.27,0.19
		c-0.49,0-1.05-0.08-3.24-0.08c-2.24,0-3.18,0.08-3.8,0.08c-0.14,0-0.22-0.08-0.22-0.24v-0.62c0-0.16,0.08-0.19,0.24-0.19h0.67
		c0.76,0,1-0.27,0.81-1.03c-0.22-0.97-1.32-4.43-1.7-5.51H132.29z M138.61,110.41c-0.24-0.81-2.43-7.56-2.56-7.96
		c-0.08-0.19-0.13-0.38-0.22-0.38c-0.11,0-0.22,0.19-0.3,0.4c-0.13,0.35-2.7,7.26-2.89,7.94H138.61z"/>
	<path class="st0" d="M157.72,102.44c0-1.03-0.19-1.35-1.7-1.59c-0.16-0.03-0.19-0.08-0.19-0.19v-0.46c0-0.11,0.05-0.16,0.22-0.19
		c1.05-0.22,2.46-0.46,2.97-0.57c0.24-0.03,0.43-0.08,0.62-0.08c0.13,0,0.16,0.19,0.13,0.49c-0.08,1.35-0.11,5.26-0.11,8.69v5.97
		c0,1,0.05,2.19,0.27,2.46c0.24,0.27,0.81,0.43,1.19,0.46c0.38,0.03,0.49,0.05,0.54,0.19l0.05,0.22c0.03,0.16-0.03,0.24-0.19,0.3
		l-3.05,1.03c-0.16,0.05-0.3-0.03-0.35-0.22l-0.35-1.19c-0.86,0.86-2.59,1.46-3.97,1.46c-0.89,0-1.92,0.05-3.19-1.24
		c-1.38-1.35-1.7-2.56-1.7-4.37c0-1.67,0.62-3.32,1.89-4.59c1.05-1.13,2.51-1.7,4.02-1.7c1.11,0,2.08,0.16,2.89,0.41V102.44z
		 M157.72,111c0-0.38,0-0.89-0.24-1.32c-0.38-0.73-1.24-1.46-2.83-1.46c-0.84,0-1.75,0.24-2.46,0.97c-1.05,1.13-1.24,2.56-1.24,3.59
		c0,3.05,2.11,5.26,3.67,5.26c1.51,0,2.67-0.78,2.94-1.48c0.13-0.41,0.16-0.62,0.16-0.92V111z"/>
	<path class="st0" d="M173.57,111.97c0-2-0.38-2.51-0.81-2.92c-0.35-0.32-1.13-0.49-1.73-0.49c-0.7,0-1.83,0.35-2.59,1.57
		c-0.32,0.54-0.38,1.05-0.38,1.81v5.34c0,0.43,0.16,0.7,0.54,0.7h0.97c0.24,0,0.27,0.05,0.27,0.24v0.43c0,0.19-0.03,0.3-0.22,0.3
		c-0.24,0-0.97-0.08-2.46-0.08c-1.43,0-2.29,0.08-2.51,0.08c-0.16,0-0.22-0.05-0.22-0.24v-0.49c0-0.22,0.05-0.24,0.32-0.24h0.92
		c0.24,0,0.38-0.16,0.4-0.67c0.03-0.46,0.03-0.95,0.03-1.4v-4.8c0-0.54-0.11-1.03-0.76-1.38l-0.57-0.3
		c-0.14-0.08-0.19-0.14-0.19-0.22V109c0-0.08,0.11-0.19,0.16-0.22l2.38-1.21c0.22-0.11,0.4-0.16,0.51-0.16
		c0.16,0,0.24,0.19,0.24,0.38l0.11,1.57h0.08c0.81-1.11,2.4-2.05,3.97-2.05c1.4,0,2.48,0.81,3.05,2.08h0.13
		c0.81-1.05,2.35-2.08,3.97-2.08c0.94,0,1.78,0.16,2.43,0.81c0.62,0.65,1.3,1.24,1.3,3.32v6.02c0,0.4,0.24,0.54,0.57,0.54h0.73
		c0.24,0,0.3,0.05,0.3,0.24v0.46c0,0.19-0.05,0.27-0.19,0.27c-0.19,0-0.94-0.08-2.24-0.08c-1.35,0-2.32,0.08-2.51,0.08
		c-0.16,0-0.21-0.08-0.21-0.27v-0.46c0-0.19,0.05-0.24,0.35-0.24h0.68c0.3,0,0.51-0.14,0.54-0.51c0.05-0.62,0.05-1.59,0.05-2.19v-4
		c0-0.89-0.16-1.67-0.78-2.16c-0.49-0.38-1.19-0.57-2-0.57s-1.92,0.62-2.35,1.4c-0.4,0.78-0.38,1.51-0.38,2.73v4.67
		c0,0.35,0.14,0.62,0.54,0.62h0.92c0.24,0,0.3,0.05,0.3,0.24v0.43c0,0.22-0.05,0.3-0.19,0.3c-0.19,0-0.89-0.08-2.4-0.08
		c-1.46,0-2.38,0.08-2.54,0.08c-0.13,0-0.19-0.08-0.19-0.27v-0.43c0-0.22,0.03-0.27,0.27-0.27h0.78c0.43,0,0.59-0.11,0.59-0.46
		V111.97z"/>
	<path class="st0" d="M189.48,111.03c0-0.92-0.16-1.4-1.51-1.62c-0.19-0.03-0.24-0.08-0.24-0.19v-0.24c0-0.08,0.05-0.14,0.19-0.19
		c0.86-0.32,1.89-0.76,2.92-1.32c0.21-0.11,0.35-0.16,0.51-0.16c0.14,0,0.16,0.13,0.14,0.32c-0.05,0.46-0.05,2.16-0.05,4.4v2.94
		c0,1.05,0,2.02,0.03,2.32c0.05,0.51,0.14,0.7,0.43,0.7h1.24c0.22,0,0.27,0.08,0.27,0.24v0.46c0,0.19-0.05,0.27-0.24,0.27
		c-0.21,0-1.46-0.08-2.59-0.08c-1.57,0-2.62,0.08-2.92,0.08c-0.13,0-0.22-0.05-0.22-0.22v-0.54c0-0.16,0.08-0.22,0.27-0.22h1.32
		c0.3,0,0.4-0.11,0.43-0.54c0.03-0.81,0.03-1.65,0.03-2.46V111.03z M188.21,102.74c0-0.7,0.59-1.51,1.7-1.51
		c1,0,1.46,0.81,1.46,1.43c0,0.73-0.49,1.59-1.62,1.59C189.13,104.25,188.21,103.63,188.21,102.74z"/>
	<path class="st0" d="M197.17,118.42c-0.13-0.08-0.13-0.24-0.16-0.38l-0.46-2.56c-0.03-0.13,0.05-0.19,0.16-0.22l0.35-0.08
		c0.11-0.03,0.19,0.03,0.24,0.16l0.67,1.32c0.54,1,0.92,1.67,2.35,1.67c0.94,0,2.13-0.57,2.13-1.84c0-1.21-0.59-1.92-2.62-2.48
		c-1.59-0.46-3.19-1.29-3.19-3.43c0-1.86,1.75-3.29,3.78-3.29c1.29,0,2,0.32,2.48,0.57c0.41,0.19,0.46,0.32,0.49,0.49l0.4,1.89
		c0,0.11-0.05,0.19-0.19,0.24l-0.32,0.11c-0.11,0.03-0.16,0-0.24-0.13l-0.92-1.24c-0.32-0.51-0.84-1.05-1.89-1.05
		c-1.03,0-2.08,0.62-2.08,1.78c0,1.57,1.27,1.86,2.59,2.24c1.97,0.57,3.21,1.38,3.24,3.46c-0.03,2.19-1.81,3.56-4.1,3.56
		C198.58,119.21,197.5,118.67,197.17,118.42z"/>
	<path class="st0" d="M208.27,118.42c-0.13-0.08-0.13-0.24-0.16-0.38l-0.46-2.56c-0.03-0.13,0.05-0.19,0.16-0.22l0.35-0.08
		c0.11-0.03,0.19,0.03,0.24,0.16l0.68,1.32c0.54,1,0.92,1.67,2.35,1.67c0.95,0,2.13-0.57,2.13-1.84c0-1.21-0.59-1.92-2.62-2.48
		c-1.59-0.46-3.18-1.29-3.18-3.43c0-1.86,1.75-3.29,3.78-3.29c1.3,0,2,0.32,2.48,0.57c0.4,0.19,0.46,0.32,0.49,0.49l0.41,1.89
		c0,0.11-0.05,0.19-0.19,0.24l-0.32,0.11c-0.11,0.03-0.16,0-0.24-0.13l-0.92-1.24c-0.32-0.51-0.84-1.05-1.89-1.05
		c-1.03,0-2.08,0.62-2.08,1.78c0,1.57,1.27,1.86,2.59,2.24c1.97,0.57,3.21,1.38,3.24,3.46c-0.03,2.19-1.81,3.56-4.1,3.56
		C209.67,119.21,208.59,118.67,208.27,118.42z"/>
	<path class="st0" d="M220.36,111.03c0-0.92-0.16-1.4-1.51-1.62c-0.19-0.03-0.24-0.08-0.24-0.19v-0.24c0-0.08,0.05-0.14,0.19-0.19
		c0.86-0.32,1.89-0.76,2.92-1.32c0.22-0.11,0.35-0.16,0.51-0.16c0.13,0,0.16,0.13,0.13,0.32c-0.05,0.46-0.05,2.16-0.05,4.4v2.94
		c0,1.05,0,2.02,0.03,2.32c0.05,0.51,0.13,0.7,0.43,0.7h1.24c0.21,0,0.27,0.08,0.27,0.24v0.46c0,0.19-0.05,0.27-0.24,0.27
		c-0.22,0-1.46-0.08-2.59-0.08c-1.57,0-2.62,0.08-2.92,0.08c-0.13,0-0.22-0.05-0.22-0.22v-0.54c0-0.16,0.08-0.22,0.27-0.22h1.32
		c0.3,0,0.4-0.11,0.43-0.54c0.03-0.81,0.03-1.65,0.03-2.46V111.03z M219.09,102.74c0-0.7,0.59-1.51,1.7-1.51
		c1,0,1.46,0.81,1.46,1.43c0,0.73-0.49,1.59-1.62,1.59C220.01,104.25,219.09,103.63,219.09,102.74z"/>
	<path class="st0" d="M228.73,117.34c-1.24-1.48-1.48-2.48-1.48-4.4c0-1.38,0.73-3.1,2.32-4.35c1.4-1.08,2.73-1.3,3.62-1.3
		c1.48,0,2.97,0.76,3.78,1.57c1.21,1.24,1.83,2.65,1.83,4.4c0,2.94-2.64,5.94-5.96,5.94C231.54,119.21,229.87,118.69,228.73,117.34z
		 M236.54,113c0-3-2.19-4.89-3.56-4.89c-0.73,0-1.43,0.16-2.08,0.86c-1.05,1.08-1.43,2.19-1.43,4.24c0,1.51,0.16,2.54,1.03,3.78
		c0.62,0.89,1.4,1.4,2.67,1.4C235.21,118.4,236.54,115.89,236.54,113z"/>
	<path class="st0" d="M253.33,117.42c0,0.43,0.24,0.57,0.59,0.57h0.86c0.24,0,0.3,0.08,0.3,0.24v0.43c0,0.19-0.05,0.3-0.22,0.3
		c-0.19,0-1.03-0.08-2.56-0.08c-1.38,0-2.24,0.08-2.43,0.08c-0.16,0-0.22-0.08-0.22-0.3v-0.43c0-0.19,0.08-0.24,0.35-0.24h0.78
		c0.3,0,0.51-0.14,0.54-0.62c0.03-0.7,0.05-1.57,0.05-2.27v-3.56c0-1.08,0-1.86-0.78-2.43c-0.65-0.49-1.3-0.49-1.97-0.49
		c-0.43,0-1.38,0.19-2.19,1.05c-0.54,0.59-0.62,1.32-0.62,1.84v5.59c0,0.73,0.08,0.89,0.65,0.89h0.68c0.21,0,0.27,0.08,0.27,0.27
		v0.46c0,0.16-0.05,0.24-0.19,0.24c-0.19,0-0.92-0.08-2.35-0.08c-1.38,0-2.24,0.08-2.4,0.08c-0.13,0-0.19-0.08-0.19-0.24v-0.49
		c0-0.16,0.05-0.24,0.27-0.24h0.78c0.35,0,0.54-0.08,0.54-0.54v-6.32c0-0.81-0.43-1.27-1.11-1.59l-0.22-0.11
		c-0.19-0.08-0.21-0.16-0.21-0.24v-0.13c0-0.14,0.11-0.22,0.24-0.27l2.32-1.3c0.22-0.11,0.38-0.19,0.49-0.19
		c0.14,0,0.19,0.11,0.22,0.32l0.19,1.65h0.05c0.78-0.97,2.35-1.97,3.7-1.97c0.81,0,1.65,0.16,2.29,0.59
		c0.81,0.54,1.48,1.89,1.48,2.56V117.42z"/>
</g>
<g>
	<rect x="308.73" y="114.59" class="st1" width="6.89" height="0"/>
</g>
</svg>
